<svg class="img-fluid" id="outputsvg" xmlns="http://www.w3.org/2000/svg" style="transform: matrix(1, 0, 0, 1, -23.3366, 41.2608); transform-origin: 50% 50% 0px; cursor: move; max-height: none; transition: none 0s ease 0s;" width="200" height="200" viewBox="0 0 2000 2000"><g id="l2RckETUGenimrbmMgfvOfL" fill="rgb(0,0,0)" style="transform: none;"><g style="transform: none;"><path id="pgZl8nE0t" d="M0 1000 l0 -1000 1000 0 1000 0 0 1000 0 1000 -1000 0 -1000 0 0 -1000z m1562 344 c42 -22 86 -71 93 -105 4 -15 17 -40 31 -56 22 -25 24 -37 24 -123 l0 -95 52 -20 c62 -24 98 -69 98 -125 0 -65 -21 -74 -172 -78 l-129 -4 3 -41 3 -40 154 -33 c84 -18 164 -40 177 -49 24 -16 32 -49 14 -60 -14 -9 -13 -61 2 -85 10 -15 10 -22 0 -32 -14 -14 -16 -74 -2 -83 6 -3 7 -30 3 -65 -4 -40 -2 -64 6 -74 10 -12 8 -19 -8 -35 -26 -26 -31 -26 -174 4 -64 14 -135 25 -157 25 -36 0 -40 -3 -40 -24 0 -13 -3 -32 -6 -40 -14 -37 -37 -37 -258 8 -176 35 -222 48 -241 66 -23 22 -24 25 -10 46 18 28 19 67 3 94 -10 15 -10 22 0 32 6 6 12 26 12 43 0 17 -6 37 -12 43 -10 10 -10 17 0 32 15 24 16 76 2 85 -16 10 -11 41 9 59 18 17 27 16 172 -13 84 -17 170 -31 191 -31 l38 0 0 85 0 85 -139 0 c-153 0 -186 7 -202 44 -28 61 23 145 102 166 l39 11 0 98 c0 79 4 103 18 122 10 13 26 44 37 67 32 73 119 126 193 117 23 -2 56 -12 74 -21z m-959 -39 c204 -53 327 -209 327 -416 0 -72 -32 -196 -67 -260 -32 -59 -117 -149 -141 -149 -25 0 -139 56 -194 96 -26 19 -59 34 -72 34 -13 0 -47 -15 -75 -34 -28 -19 -67 -40 -87 -46 -34 -12 -37 -11 -71 21 -177 170 -198 494 -43 649 57 57 152 100 243 110 110 11 119 11 180 -5z"></path></g></g><g id="l1tdZtnlKKOEBXi4Ph2Zc4q" fill="rgb(12,14,21)" style="transform: none;"><g style="transform: none;"><path id="pzMk9SFb8" d="M978 1942 c-34 -7 -20 -32 17 -32 23 0 35 5 35 14 0 15 -25 24 -52 18z"></path><path id="pM29Kp65n" d="M805 1921 c-213 -61 -341 -215 -350 -424 -3 -69 -2 -78 13 -75 13 2 20 22 29 78 6 41 18 94 27 118 8 23 12 42 8 42 -4 0 -2 4 3 8 6 4 24 25 40 48 75 103 167 151 338 179 41 7 50 29 15 39 -34 9 -57 6 -123 -13z"></path><path id="pbOnp7Q6f" d="M1058 1933 c-44 -11 -8 -43 48 -43 43 0 153 -41 203 -75 37 -26 51 -31 51 -20 0 8 5 15 12 15 21 0 -23 38 -81 69 -80 42 -185 67 -233 54z"></path><path id="pXDM5vkon" d="M930 1845 c-10 -11 -10 -19 -2 -27 15 -15 44 -2 40 19 -4 23 -22 27 -38 8z"></path><path id="psxaXhB2T" d="M1011 1846 c-9 -10 -8 -16 4 -26 19 -16 41 1 32 24 -8 20 -21 20 -36 2z"></path><path id="p3NsbP8vM" d="M850 1840 c-18 -11 -4 -42 17 -38 10 2 19 10 21 19 4 19 -19 31 -38 19z"></path><path id="p45pLkG9f" d="M1093 1834 c-8 -21 13 -42 28 -27 13 13 5 43 -11 43 -6 0 -13 -7 -17 -16z"></path><path id="psBl6JiRP" d="M1171 1816 c-9 -10 -8 -16 4 -26 19 -16 41 1 32 24 -8 20 -21 20 -36 2z"></path><path id="pIXF5B4NV" d="M764 1809 c-9 -15 12 -33 30 -26 9 4 16 13 16 22 0 17 -35 21 -46 4z"></path><path id="pRukOPy4e" d="M701 1776 c-14 -17 -7 -36 14 -36 22 0 29 20 13 36 -13 13 -16 13 -27 0z"></path><path id="pDkewPjKy" d="M1243 1774 c-9 -23 13 -40 32 -24 12 10 13 16 4 26 -15 18 -28 18 -36 -2z"></path><path id="ph0N01lNB" d="M1400 1781 c0 -6 -7 -11 -15 -11 -12 0 -9 -11 14 -44 30 -44 65 -138 76 -208 8 -50 31 -50 40 0 7 44 -20 139 -58 205 -28 47 -57 77 -57 58z"></path><path id="pTCheu9QZ" d="M633 1714 c-3 -8 -1 -20 6 -27 14 -14 47 15 37 32 -10 16 -36 13 -43 -5z"></path><path id="pMR9tu25t" d="M1302 1713 c5 -26 38 -29 38 -4 0 15 -6 21 -21 21 -14 0 -19 -5 -17 -17z"></path><path id="p11lhrtfH1" d="M1351 1656 c-14 -17 -7 -36 14 -36 22 0 29 20 13 36 -13 13 -16 13 -27 0z"></path><path id="pv3DIFCSk" d="M593 1644 c-7 -18 11 -39 26 -30 17 11 13 46 -4 46 -9 0 -18 -7 -22 -16z"></path><path id="psUyMapbL" d="M1377 1584 c-15 -15 -7 -45 11 -42 9 2 17 12 17 22 0 20 -16 31 -28 20z"></path><path id="p1GI9J0wxg" d="M565 1570 c-4 -7 -3 -16 3 -22 14 -14 45 -2 40 15 -6 16 -34 21 -43 7z"></path><path id="pa3tWv5aZ" d="M1381 1496 c-14 -17 -7 -36 14 -36 22 0 29 20 13 36 -13 13 -16 13 -27 0z"></path><path id="pGMiNWawc" d="M554 1489 c-3 -6 0 -17 8 -25 13 -13 16 -13 27 0 7 8 10 20 6 26 -8 13 -32 13 -41 -1z"></path><path id="p1BBRGglxN" d="M1480 1440 c0 -13 7 -20 20 -20 13 0 20 7 20 20 0 13 -7 20 -20 20 -13 0 -20 -7 -20 -20z"></path><path id="p7gjtuDUY" d="M464 1369 c3 -17 6 -35 6 -39 0 -4 25 -11 56 -15 31 -4 77 -13 103 -21 58 -18 104 -18 99 -2 -7 19 -88 46 -160 55 -55 7 -63 11 -66 31 -2 14 -10 22 -24 22 -18 0 -20 -4 -14 -31z"></path><path id="p11oA39Cdy" d="M1380 1385 c-58 -26 -95 -61 -115 -107 -11 -23 -27 -54 -37 -67 -24 -32 -23 -41 6 -41 31 0 47 20 53 70 3 23 11 40 19 40 7 0 21 10 31 23 19 23 83 57 108 57 8 0 15 7 15 15 0 8 7 15 15 15 8 0 15 -7 15 -15 0 -8 7 -15 15 -15 21 0 89 -33 98 -47 4 -7 15 -13 22 -13 8 0 15 -9 15 -20 0 -11 5 -20 10 -20 6 0 10 -13 10 -28 0 -16 8 -34 20 -42 11 -8 20 -20 20 -27 0 -7 9 -13 20 -13 28 0 26 29 -4 63 -14 16 -27 41 -31 56 -7 35 -52 84 -96 107 -47 24 -164 29 -209 9z"></path><path id="pHaWn8Wft" d="M315 1326 c-154 -49 -239 -149 -266 -313 -23 -142 16 -329 89 -428 l37 -50 3 35 c2 19 -1 36 -7 38 -6 2 -11 10 -11 18 0 8 -4 14 -10 14 -5 0 -10 7 -10 15 0 8 -4 15 -10 15 -5 0 -10 11 -10 25 0 14 -4 25 -8 25 -11 0 -32 129 -32 197 0 60 20 183 29 183 4 0 15 17 26 38 11 20 30 45 43 55 12 10 22 24 22 31 0 8 14 16 30 20 18 3 30 12 30 21 0 8 8 15 17 15 10 0 41 6 70 12 39 9 53 17 53 30 0 21 -27 23 -85 4z"></path><path id="pwdtJSGKG" d="M740 1265 c0 -15 6 -25 14 -25 8 0 16 -7 20 -15 3 -8 17 -15 31 -15 20 0 25 -5 25 -25 0 -13 6 -28 13 -32 19 -12 66 -125 73 -177 6 -37 11 -46 27 -46 18 0 19 4 13 51 -15 113 -71 212 -155 276 -51 40 -61 41 -61 8z"></path><path id="p3XZQAvPm" d="M1210 1005 c0 -8 -12 -18 -27 -21 -48 -11 -95 -46 -109 -80 -19 -46 -18 -64 6 -64 11 0 20 5 20 12 0 30 46 78 87 90 39 11 43 15 43 45 0 18 -4 33 -10 33 -5 0 -10 -7 -10 -15z"></path><path id="ppCd04e49" d="M1720 986 c0 -32 2 -35 40 -41 22 -4 40 -11 40 -16 0 -5 7 -9 15 -9 8 0 15 -7 15 -15 0 -8 5 -15 10 -15 6 0 10 -9 10 -20 0 -13 7 -20 20 -20 27 0 26 28 -3 71 -15 23 -39 40 -75 54 -28 11 -52 26 -52 33 0 6 -4 12 -10 12 -5 0 -10 -15 -10 -34z"></path><path id="p10nnOa0wA" d="M913 781 c-12 -65 -60 -182 -80 -194 -7 -4 -13 -16 -13 -26 0 -10 -9 -21 -21 -24 -11 -3 -23 -14 -26 -25 -6 -26 -49 -34 -92 -16 -18 8 -44 14 -57 14 -15 0 -24 6 -24 15 0 8 -11 17 -25 21 -14 3 -25 10 -25 15 0 5 -5 9 -11 9 -7 0 -17 7 -24 16 -6 9 -32 18 -57 21 -37 4 -48 2 -59 -14 -19 -25 -129 -73 -169 -73 -32 0 -33 0 -15 -20 10 -11 23 -20 30 -20 31 0 119 34 162 63 l49 33 39 -29 c51 -37 125 -75 192 -98 l52 -18 38 30 c83 65 133 148 164 266 24 95 24 113 1 113 -13 0 -20 -13 -29 -59z"></path><path id="p10xZmnZCa" d="M1850 776 c0 -21 -33 -26 -173 -26 l-128 0 3 -47 3 -47 150 -33 c83 -18 162 -32 178 -33 31 0 29 11 29 -160 0 -134 3 -150 29 -150 23 0 25 27 5 56 -12 17 -12 22 0 39 8 10 14 28 14 40 0 11 -6 30 -14 41 -12 17 -12 22 0 39 21 29 17 73 -10 99 -23 24 -39 28 -255 74 -126 27 -115 40 37 44 111 3 133 6 151 22 27 25 28 56 1 56 -11 0 -20 -6 -20 -14z"></path><path id="pI7v7KS2z" d="M1090 736 c0 -21 33 -26 183 -26 115 0 137 -2 137 -15 0 -8 7 -15 15 -15 10 0 15 11 15 35 l0 35 -175 0 c-142 0 -175 -3 -175 -14z"></path><path id="pn5vHyyj1" d="M1001 634 c-24 -31 -26 -58 -7 -95 11 -22 11 -29 0 -44 -18 -24 -17 -43 0 -77 8 -15 11 -30 6 -33 -15 -9 -20 -54 -8 -82 6 -15 11 -31 10 -35 -1 -5 5 -8 14 -8 12 0 15 9 13 40 -2 21 0 42 4 46 11 11 8 92 -3 99 -6 4 -6 15 0 31 13 33 13 81 0 89 -5 3 -10 17 -10 31 0 17 5 24 20 24 13 0 20 7 20 20 0 29 -34 25 -59 -6z"></path><path id="pyQObg0tm" d="M1070 642 c0 -15 25 -23 163 -50 90 -18 175 -32 190 -32 25 0 27 3 27 40 0 33 -3 40 -20 40 -13 0 -20 -7 -20 -20 0 -11 -4 -20 -8 -20 -5 0 -76 14 -157 30 -174 35 -175 35 -175 12z"></path><path id="p4OsoHqCd" d="M1900 225 c0 -19 5 -35 10 -35 15 0 12 -32 -5 -54 -14 -19 -17 -18 -147 8 -154 30 -178 32 -178 11 0 -8 2 -15 5 -15 3 0 70 -14 151 -31 124 -26 150 -29 175 -18 16 6 34 20 39 30 13 24 13 76 -1 85 -6 3 -8 17 -5 30 6 21 3 24 -19 24 -22 0 -25 -4 -25 -35z"></path><path id="p1DKPY1K6a" d="M980 192 c0 -10 11 -29 25 -42 19 -18 65 -31 241 -66 120 -24 222 -44 226 -44 4 0 8 8 8 18 0 14 -27 23 -163 50 -270 55 -297 63 -297 84 0 11 -7 18 -20 18 -13 0 -20 -7 -20 -18z"></path><path id="pP1Sp0Qk9" d="M1517 93 c-11 -10 -8 -53 3 -53 13 0 50 37 50 50 0 11 -43 14 -53 3z"></path></g></g><g id="lAg4am2WeGbRFpj5xALLPI" fill="rgb(44,48,74)" style="transform: none;"><g style="transform: none;"><path id="pJmEgvY0N" d="M830 1924 c-188 -40 -318 -166 -366 -354 -19 -73 -16 -145 6 -145 11 0 17 17 22 67 25 224 158 361 389 400 55 10 69 16 69 30 0 22 -27 22 -120 2z"></path><path id="poaIejU1g" d="M1040 1922 c0 -14 16 -21 83 -33 197 -38 311 -148 348 -336 9 -51 15 -63 30 -63 24 0 24 25 4 105 -46 177 -169 291 -353 331 -91 19 -112 18 -112 -4z"></path><path id="pbP0daIXw" d="M930 1835 c0 -10 7 -15 18 -13 21 4 19 22 -2 26 -10 2 -16 -3 -16 -13z"></path><path id="pNeBkimlY" d="M1010 1834 c0 -9 7 -14 17 -12 25 5 28 28 4 28 -12 0 -21 -6 -21 -16z"></path><path id="pFBYRI6jX" d="M850 1825 c0 -8 7 -15 15 -15 8 0 15 7 15 15 0 8 -7 15 -15 15 -8 0 -15 -7 -15 -15z"></path><path id="p2ImOwD12" d="M1090 1825 c0 -8 9 -15 20 -15 11 0 20 7 20 15 0 8 -9 15 -20 15 -11 0 -20 -7 -20 -15z"></path><path id="p1CYMd9kiB" d="M774 1809 c-3 -6 -1 -16 5 -22 9 -9 14 -8 21 3 9 15 4 30 -10 30 -5 0 -12 -5 -16 -11z"></path><path id="peZdgmW2Q" d="M1170 1806 c0 -10 9 -16 21 -16 24 0 21 23 -4 28 -10 2 -17 -3 -17 -12z"></path><path id="pI5e7mvbC" d="M700 1759 c0 -24 23 -21 28 4 2 10 -3 17 -12 17 -10 0 -16 -9 -16 -21z"></path><path id="pZitjHc0F" d="M1242 1768 c7 -19 38 -22 38 -4 0 10 -9 16 -21 16 -12 0 -19 -5 -17 -12z"></path><path id="p1CxAybtcz" d="M646 1723 c-12 -12 -6 -33 9 -33 8 0 15 6 15 14 0 17 -14 28 -24 19z"></path><path id="pk9qiwd5G" d="M1304 1719 c-10 -17 13 -36 27 -22 12 12 4 33 -11 33 -5 0 -12 -5 -16 -11z"></path><path id="p4gv2kzni" d="M597 1654 c-14 -14 -7 -35 11 -32 9 2 17 10 17 17 0 16 -18 25 -28 15z"></path><path id="p1GuhfZSTC" d="M1350 1640 c0 -11 7 -20 15 -20 8 0 15 9 15 20 0 11 -7 20 -15 20 -8 0 -15 -9 -15 -20z"></path><path id="p1Ad5n1YhR" d="M570 1560 c0 -11 7 -20 15 -20 8 0 15 9 15 20 0 11 -7 20 -15 20 -8 0 -15 -9 -15 -20z"></path><path id="pThU4NvgW" d="M1370 1566 c0 -21 21 -31 30 -15 5 7 6 17 4 21 -9 14 -34 9 -34 -6z"></path><path id="p1EmEiOukt" d="M560 1480 c0 -11 7 -20 15 -20 8 0 15 9 15 20 0 11 -7 20 -15 20 -8 0 -15 -9 -15 -20z"></path><path id="p14yY34QN1" d="M1380 1480 c0 -11 7 -20 15 -20 8 0 15 9 15 20 0 11 -7 20 -15 20 -8 0 -15 -9 -15 -20z"></path><path id="p6IzcNA5h" d="M1482 1443 c2 -10 10 -18 18 -18 8 0 16 8 18 18 2 12 -3 17 -18 17 -15 0 -20 -5 -18 -17z"></path><path id="pSGDpiKHH" d="M467 1394 c-13 -13 -7 -44 8 -44 8 0 15 -8 15 -19 0 -15 10 -19 58 -23 57 -6 194 -53 200 -70 2 -4 11 -8 20 -8 10 0 22 -10 27 -22 6 -13 20 -27 33 -33 12 -5 22 -18 22 -27 0 -13 8 -18 25 -18 31 0 31 5 -2 53 -57 82 -180 145 -315 162 -47 6 -57 11 -60 28 -3 21 -19 32 -31 21z"></path><path id="pooRuRElH" d="M1410 1391 c-76 -25 -143 -85 -155 -139 -3 -17 -15 -38 -26 -48 -25 -23 -25 -54 1 -54 15 0 20 7 20 25 0 17 5 25 18 25 17 0 42 58 42 100 0 16 7 20 30 20 19 0 30 5 30 14 0 9 18 16 54 20 70 9 156 -2 156 -20 0 -8 10 -14 24 -14 18 0 25 -7 29 -27 10 -53 32 -103 44 -103 17 0 15 11 22 -119 l6 -114 48 -14 c58 -17 87 -44 94 -89 4 -25 11 -34 24 -34 24 0 25 39 3 85 -18 38 -46 60 -95 72 l-34 9 -5 101 c-4 85 -8 105 -26 125 -12 13 -24 35 -28 50 -9 38 -52 85 -99 110 -44 22 -137 32 -177 19z"></path><path id="pDHsuABsr" d="M322 1324 c-142 -38 -247 -154 -267 -296 -7 -44 -6 -48 14 -48 13 0 21 6 21 17 0 27 34 133 42 133 4 0 8 7 8 15 0 8 5 15 10 15 6 0 10 14 10 30 0 27 3 30 31 30 22 0 32 5 36 20 3 11 13 20 22 20 9 1 41 9 71 20 30 11 67 19 83 20 20 0 27 5 27 20 0 24 -30 26 -108 4z"></path><path id="p14aMuK8jf" d="M890 1095 c0 -15 7 -52 16 -83 25 -85 15 -227 -21 -312 -15 -36 -32 -80 -39 -97 -6 -18 -17 -33 -23 -33 -8 0 -13 -14 -13 -35 0 -33 -2 -35 -35 -35 -32 0 -35 -2 -35 -31 l0 -30 29 21 c156 110 233 394 164 599 -20 60 -43 79 -43 36z"></path><path id="p15BjKsySQ" d="M1207 1002 c-2 -11 -17 -21 -33 -25 -41 -8 -84 -44 -100 -83 -20 -47 -18 -74 4 -74 14 0 22 13 32 50 10 37 18 50 32 50 10 0 18 4 18 9 0 5 18 12 40 16 38 6 40 9 40 41 0 37 -24 48 -33 16z"></path><path id="pf2f6NrOR" d="M55 803 c16 -110 73 -221 146 -288 32 -29 44 -34 67 -29 93 22 127 61 45 51 -26 -3 -62 -3 -80 0 -27 5 -33 10 -33 30 0 13 -7 26 -15 29 -8 4 -15 12 -15 19 0 7 -4 15 -8 17 -13 5 -64 137 -70 180 -3 30 -9 38 -24 38 -18 0 -20 -4 -13 -47z"></path><path id="p1CAaO7T2I" d="M1060 787 c0 -31 27 -67 51 -67 23 0 26 32 4 50 -8 7 -15 19 -15 26 0 8 -9 14 -20 14 -14 0 -20 -7 -20 -23z"></path><path id="p12JNZ9Yhb" d="M1843 783 c-16 -32 -17 -63 -3 -63 19 0 50 40 50 65 0 34 -31 33 -47 -2z"></path><path id="p66oK1sAV" d="M1590 662 c0 -15 23 -22 138 -46 75 -16 149 -36 165 -45 26 -15 38 -51 17 -51 -15 0 -12 -87 3 -93 10 -4 10 -7 0 -18 -17 -17 -17 -96 0 -102 9 -3 9 -9 -2 -30 -13 -25 -12 -43 5 -119 9 -38 -15 -39 -176 -6 -74 15 -152 27 -172 28 l-38 0 0 -50 c0 -48 -1 -50 -27 -50 -16 0 -122 19 -238 42 -162 32 -214 46 -227 61 -20 23 -22 33 -8 42 6 3 10 22 10 41 0 28 -4 34 -21 34 -13 0 -19 -5 -16 -13 3 -7 -1 -21 -9 -32 -26 -36 -13 -94 26 -115 24 -13 441 -100 479 -100 35 0 71 37 71 73 0 34 -1 34 174 -2 149 -31 172 -30 200 11 20 28 20 57 2 84 -12 17 -12 22 0 39 18 24 17 53 -1 85 -9 17 -10 29 -4 37 14 16 14 65 2 88 -8 14 -7 27 5 52 14 30 14 36 -1 67 -18 40 -10 36 -191 76 -164 35 -166 35 -166 12z"></path><path id="p1DF9QqWuK" d="M1013 645 c-29 -20 -37 -60 -19 -97 11 -21 13 -36 6 -48 -14 -27 -13 -30 15 -30 21 0 25 5 25 28 0 15 -4 41 -9 59 -8 26 -6 35 10 49 19 17 26 17 183 -14 89 -18 170 -32 180 -32 28 0 46 25 46 64 0 30 -4 36 -21 36 -19 0 -21 -4 -16 -35 5 -32 4 -35 -16 -30 -74 17 -324 65 -341 65 -12 0 -31 -7 -43 -15z"></path><path id="p10Wr4e56x" d="M430 595 c0 -10 -10 -15 -30 -15 -25 0 -30 -4 -30 -25 0 -32 11 -32 49 1 l31 26 69 -46 c38 -25 99 -57 135 -71 l66 -25 0 25 c0 20 -6 25 -37 31 -21 4 -44 13 -51 21 -7 7 -24 13 -38 13 -15 0 -24 6 -24 15 0 8 -7 15 -15 15 -8 0 -15 5 -15 10 0 6 -9 10 -20 10 -11 0 -20 7 -20 15 0 10 -11 15 -35 15 -24 0 -35 -5 -35 -15z"></path><path id="pLjGM6EXK" d="M990 442 c0 -10 6 -24 12 -30 10 -10 10 -17 0 -32 -18 -29 -15 -50 8 -50 11 0 20 7 20 15 0 8 5 15 10 15 6 0 10 16 10 35 0 19 -4 35 -10 35 -5 0 -10 7 -10 15 0 8 -9 15 -20 15 -13 0 -20 -7 -20 -18z"></path></g></g><g id="l2hcv9LVmNAHJEO0B24F2sX" fill="rgb(51,56,87)" style="transform: none;"><g style="transform: none;"><path id="p5jGGcGtA" d="M870 1929 c-68 -11 -150 -38 -150 -49 0 -4 -13 -10 -29 -13 -45 -9 -145 -109 -181 -179 -33 -67 -39 -108 -15 -108 8 0 15 6 15 13 0 35 65 140 115 185 105 96 206 126 400 120 103 -4 142 -9 187 -27 123 -48 209 -135 245 -248 20 -63 49 -76 40 -16 -17 103 -110 219 -220 273 -105 52 -269 71 -407 49z"></path><path id="pPnwTDnUR" d="M1480 1490 c0 -53 2 -60 20 -60 16 0 20 7 20 38 0 52 -10 82 -26 82 -10 0 -14 -16 -14 -60z"></path><path id="p15k3ND8XW" d="M456 1508 c-3 -13 -6 -36 -6 -51 0 -22 4 -28 18 -25 23 4 32 98 9 98 -8 0 -17 -10 -21 -22z"></path><path id="pGHuRvxnV" d="M467 1393 c-4 -3 -7 -17 -7 -30 0 -17 -6 -23 -22 -23 -40 0 -68 -12 -68 -28 0 -12 10 -14 61 -8 34 3 75 6 90 6 36 0 39 25 4 34 -14 4 -25 12 -25 20 0 17 -24 38 -33 29z"></path><path id="p9rtDDjjJ" d="M1416 1389 c-49 -12 -99 -42 -126 -76 -26 -34 -25 -43 5 -43 18 0 25 5 25 20 0 13 7 20 20 20 11 0 20 4 20 8 0 10 88 42 117 42 36 0 106 -32 126 -57 10 -13 25 -23 33 -23 9 0 14 -11 14 -30 0 -16 4 -30 9 -30 5 0 11 -10 13 -22 2 -17 11 -24 31 -26 31 -4 35 10 8 37 -10 10 -21 29 -24 43 -25 98 -157 165 -271 137z"></path><path id="p15C21GkYV" d="M570 1321 c0 -17 8 -21 50 -27 28 -4 50 -10 50 -15 0 -5 14 -9 30 -9 20 0 30 -5 30 -15 0 -8 6 -15 14 -15 8 0 16 -5 18 -11 2 -6 19 -9 38 -7 l35 3 -44 32 c-45 34 -123 67 -184 78 -33 6 -37 5 -37 -14z"></path><path id="p12NXksUFU" d="M253 1296 c-65 -31 -131 -96 -161 -158 -27 -59 -28 -78 -2 -78 15 0 20 7 20 25 0 14 5 25 10 25 6 0 10 14 10 30 0 23 4 30 20 30 13 0 20 7 20 20 0 13 7 20 20 20 11 0 20 7 20 15 0 8 9 15 20 15 11 0 20 7 20 15 0 9 9 15 23 15 42 0 67 12 67 31 0 26 -24 24 -87 -5z"></path><path id="pQXn6BOoe" d="M1260 1249 c0 -6 -11 -24 -25 -41 -31 -36 -33 -68 -5 -68 15 0 20 7 20 25 0 18 5 25 20 25 16 0 20 7 20 35 0 24 -5 35 -15 35 -8 0 -15 -5 -15 -11z"></path><path id="p14Vlh3lqr" d="M840 1178 c0 -21 4 -38 8 -38 4 0 14 -16 21 -35 7 -19 16 -35 20 -35 5 0 11 -22 15 -50 6 -42 10 -50 27 -50 19 0 20 4 14 37 -11 63 -44 137 -74 173 l-30 35 -1 -37z"></path><path id="pddscThej" d="M56 1018 c-10 -38 -7 -48 14 -48 16 0 20 7 20 35 0 40 -24 49 -34 13z"></path><path id="p1Aetuivn0" d="M1700 985 c0 -33 2 -35 35 -35 39 0 50 24 15 33 -11 3 -20 12 -20 21 0 9 -7 16 -15 16 -10 0 -15 -11 -15 -35z"></path><path id="pnHwTMz2u" d="M1160 973 c-25 -10 -70 -44 -70 -54 0 -5 14 -9 30 -9 17 0 30 4 30 9 0 5 14 12 30 16 21 5 30 13 30 26 0 19 -19 23 -50 12z"></path><path id="pCtCv2F0v" d="M920 895 c0 -41 4 -55 14 -55 18 0 29 48 20 84 -3 14 -12 26 -20 26 -10 0 -14 -15 -14 -55z"></path><path id="puRKbX9Jp" d="M1835 910 c19 -140 18 -150 -4 -150 -14 0 -21 -6 -21 -20 0 -44 59 -14 75 38 12 40 -5 121 -32 150 l-24 27 6 -45z"></path><path id="pCJ75Zr1q" d="M1064 845 c-7 -41 2 -83 23 -107 22 -25 53 -23 53 2 0 13 -7 20 -20 20 -18 0 -20 7 -20 60 0 46 -3 60 -15 60 -8 0 -17 -14 -21 -35z"></path><path id="p6wQ07OGo" d="M54 823 c14 -82 18 -93 32 -93 16 0 17 15 8 84 -5 37 -11 46 -26 46 -18 0 -19 -5 -14 -37z"></path><path id="pNlNJr7vP" d="M906 773 c-9 -60 -7 -83 8 -83 9 0 18 19 25 50 14 67 14 70 -8 70 -14 0 -20 -10 -25 -37z"></path><path id="pCVlJWE5A" d="M1380 735 c0 -8 6 -15 14 -15 9 0 15 -19 19 -62 3 -35 4 -64 3 -65 -1 -2 -81 13 -176 32 -95 19 -177 35 -182 35 -4 0 -8 -8 -8 -18 0 -15 25 -23 163 -50 90 -18 183 -32 206 -32 l44 0 -7 53 c-3 28 -6 71 -6 95 0 41 -1 42 -35 42 -24 0 -35 -5 -35 -15z"></path><path id="p8GpjRNRw" d="M1580 665 c0 -18 7 -24 38 -29 58 -9 82 -7 82 8 0 8 -23 19 -60 28 -60 14 -60 14 -60 -7z"></path><path id="pX7LdTPfG" d="M110 642 c0 -17 79 -119 104 -136 26 -16 26 -16 26 12 0 33 -27 62 -58 62 -18 0 -22 6 -22 35 0 31 -3 35 -25 35 -14 0 -25 -4 -25 -8z"></path><path id="p1DaH4pACW" d="M1720 631 c0 -18 39 -31 98 -31 44 0 23 28 -28 39 -67 14 -70 14 -70 -8z"></path><path id="plZNQevRL" d="M420 605 c0 -8 -9 -15 -20 -15 -11 0 -20 -4 -20 -8 0 -4 -22 -16 -50 -27 -36 -14 -50 -25 -50 -38 0 -17 5 -19 32 -13 28 5 80 33 129 67 12 9 26 4 65 -23 50 -36 95 -61 139 -78 22 -8 25 -7 25 14 0 18 -11 28 -52 47 -29 13 -54 27 -56 32 -2 4 -10 7 -18 7 -8 0 -14 5 -14 10 0 6 -9 10 -20 10 -11 0 -20 7 -20 15 0 10 -11 15 -35 15 -24 0 -35 -5 -35 -15z"></path><path id="pfM9eE5Qj" d="M1860 600 c0 -16 7 -20 30 -20 28 0 30 -3 30 -35 0 -24 -5 -35 -15 -35 -10 0 -15 -11 -15 -35 0 -19 5 -35 10 -35 6 0 10 -7 10 -15 0 -8 9 -15 20 -15 22 0 27 29 8 48 -9 9 -9 17 1 36 21 38 16 74 -13 101 -33 31 -66 33 -66 5z"></path><path id="phZ5jHy4v" d="M830 580 c0 -12 -7 -20 -16 -20 -9 0 -18 -9 -21 -20 -3 -11 -12 -20 -20 -20 -8 0 -17 -9 -20 -20 -4 -15 -14 -20 -40 -20 -40 0 -41 -20 -1 -34 21 -7 32 -4 63 20 37 28 105 109 105 125 0 5 -11 9 -25 9 -18 0 -25 -5 -25 -20z"></path><path id="pHrzmRJEn" d="M1006 526 c3 -13 1 -27 -5 -30 -19 -12 -13 -46 9 -46 11 0 20 7 20 15 0 8 5 15 10 15 6 0 10 16 10 35 0 31 -3 35 -25 35 -22 0 -25 -3 -19 -24z"></path><path id="p11dQl9OuL" d="M1890 355 c0 -19 4 -35 9 -35 14 0 26 -63 12 -68 -13 -4 -15 -72 -2 -72 5 0 7 -18 4 -40 -6 -41 5 -52 26 -26 16 19 17 66 3 93 -9 16 -9 27 2 48 14 28 13 41 -6 82 -8 17 -8 26 2 38 11 13 8 15 -19 15 -29 0 -31 -2 -31 -35z"></path><path id="psQux74zT" d="M990 324 c0 -8 4 -24 10 -34 7 -13 5 -26 -7 -48 -14 -25 -15 -34 -4 -59 7 -17 22 -35 34 -42 20 -10 454 -101 484 -101 23 0 63 47 63 74 0 19 -4 23 -20 19 -10 -3 -22 -13 -25 -24 -3 -10 -14 -21 -24 -24 -27 -8 -448 80 -466 98 -17 17 -21 67 -5 67 11 0 14 49 4 74 -8 21 -44 21 -44 0z"></path><path id="pHDHqvGM8" d="M1560 166 c0 -14 27 -22 133 -41 32 -6 37 -5 37 12 0 16 -11 22 -64 31 -83 16 -106 15 -106 -2z"></path></g></g><g id="l1tvv5SOh1pajWazNBR6Bzs" fill="rgb(63,69,107)" style="transform: none;"><g style="transform: none;"><path id="pNQACesTQ" d="M885 1931 c-213 -35 -343 -138 -404 -317 -23 -71 -32 -175 -14 -181 7 -3 14 10 18 34 23 155 57 233 129 305 93 91 205 130 376 131 227 1 369 -71 446 -227 29 -60 37 -88 41 -155 6 -81 15 -103 35 -83 18 18 -9 169 -41 238 -32 69 -96 144 -153 180 -98 62 -299 97 -433 75z"></path><path id="peJ1VQphr" d="M465 1367 c7 -24 4 -26 -52 -32 -230 -26 -348 -151 -360 -385 -6 -112 13 -216 54 -300 31 -64 118 -160 144 -160 31 0 125 39 165 69 l39 27 46 -32 c48 -35 177 -99 219 -109 21 -5 35 3 81 49 103 102 149 224 149 396 0 153 -42 265 -128 341 -73 63 -188 109 -279 109 -35 0 -42 3 -45 22 -2 13 -11 24 -21 26 -14 3 -17 -1 -12 -21z m228 -136 c216 -105 263 -429 94 -645 l-31 -39 -19 44 c-70 164 -154 454 -190 655 l-6 32 53 -12 c29 -7 73 -23 99 -35z m-207 -196 c21 -94 109 -385 141 -464 11 -28 -82 35 -149 100 -78 76 -120 154 -144 269 -23 111 0 195 75 273 l36 38 8 -48 c4 -26 19 -102 33 -168z m-233 148 c-28 -66 -29 -225 -3 -341 l23 -99 -25 -73 -24 -73 -31 49 c-52 81 -76 166 -76 269 1 118 27 190 94 257 26 26 50 48 53 48 3 0 -2 -17 -11 -37z"></path><path id="pPwOP9alK" d="M1362 1364 c-54 -27 -102 -82 -102 -117 0 -10 -10 -27 -22 -37 -21 -16 -23 -29 -26 -124 -3 -68 -8 -106 -15 -106 -28 0 -99 -45 -112 -71 -9 -16 -15 -55 -15 -93 0 -93 6 -96 196 -96 l152 0 4 -65 c2 -39 -1 -65 -7 -65 -5 0 -91 16 -189 36 -178 36 -179 36 -205 16 -31 -23 -39 -73 -18 -106 13 -19 13 -25 1 -41 -18 -24 -18 -56 0 -80 11 -16 11 -22 -3 -46 -13 -24 -14 -33 -2 -64 9 -27 10 -39 1 -50 -21 -25 -15 -77 12 -100 36 -31 477 -120 513 -103 26 12 50 60 41 83 -7 20 -9 20 154 -15 166 -35 184 -36 210 -10 23 23 27 79 8 98 -10 10 -10 17 0 32 16 27 15 71 -3 97 -13 18 -13 22 0 33 19 16 19 60 0 87 -13 18 -13 22 0 33 22 18 19 83 -4 104 -10 9 -83 31 -173 50 -168 36 -178 40 -178 62 0 11 23 14 128 14 164 0 172 4 172 98 0 50 -5 76 -20 100 -20 33 -71 62 -110 62 -19 0 -20 6 -20 103 0 90 -3 106 -19 121 -11 10 -23 31 -26 48 -9 40 -61 97 -110 119 -61 28 -149 25 -213 -7z m196 -66 c17 -11 32 -24 32 -29 0 -5 -54 -9 -121 -9 -134 0 -141 7 -56 50 48 24 92 20 145 -12z m96 -141 c14 -10 16 -25 14 -75 l-3 -62 -155 -1 c-85 -1 -172 -1 -192 -1 l-38 2 0 63 c0 36 5 68 12 75 17 17 338 17 362 -1z m111 -252 c54 -26 77 -109 33 -120 -13 -3 -167 -4 -343 -3 l-320 3 -3 28 c-4 37 21 75 61 92 49 22 526 21 572 0z m-245 -239 c0 -34 14 -42 125 -66 195 -41 235 -52 235 -60 0 -15 -357 64 -379 84 -28 25 -28 66 -1 66 14 0 20 -7 20 -24z m-58 -156 c399 -82 431 -89 412 -96 -15 -6 -797 155 -808 166 -6 6 -7 10 -3 10 3 0 183 -36 399 -80z m18 -130 c216 -44 394 -80 396 -80 2 0 4 -4 4 -9 0 -9 -772 142 -805 158 -42 20 21 9 405 -69z m390 -207 c13 -5 13 -7 -1 -10 -8 -2 -91 12 -185 32 -168 36 -605 125 -611 125 -2 0 -3 4 -3 9 0 8 766 -141 800 -156z m-584 -4 c191 -39 212 -44 203 -53 -6 -6 -416 78 -425 87 -13 13 20 8 222 -34z"></path></g></g><g id="l02N0RwQaJWQt0VCSkQuOs" fill="rgb(95,100,129)" style="transform: none;"><g style="transform: none;"><path id="pxHTZ0NV5" d="M1379 1337 c-39 -21 -89 -76 -89 -98 0 -5 18 -9 40 -9 35 0 40 3 40 23 0 32 10 42 53 58 24 8 37 19 37 31 0 25 -28 23 -81 -5z"></path><path id="pT0w0iLVL" d="M1480 1343 c0 -14 10 -23 32 -29 18 -6 34 -17 36 -27 3 -15 -7 -17 -82 -17 -79 0 -86 -2 -86 -20 0 -19 7 -20 135 -20 91 0 135 4 135 11 0 22 -36 71 -65 89 -16 10 -47 21 -67 25 -33 6 -38 5 -38 -12z"></path><path id="p1DNbpZLzU" d="M505 1293 c2 -10 11 -62 20 -115 14 -79 19 -96 32 -91 16 6 16 16 -3 141 -7 42 -6 42 25 42 20 0 31 5 31 14 0 15 -30 26 -77 26 -24 0 -30 -4 -28 -17z"></path><path id="pMSG9J65p" d="M348 1293 c-10 -2 -18 -9 -18 -14 0 -5 -9 -9 -20 -9 -11 0 -20 -5 -20 -11 0 -6 -7 -17 -15 -25 -15 -16 -20 -60 -9 -89 5 -11 13 -2 29 33 12 26 37 65 55 85 32 37 32 39 -2 30z"></path><path id="phXkyrM2i" d="M413 1275 l-28 -24 28 -1 c32 0 30 4 52 -122 14 -84 20 -98 36 -98 10 0 19 2 19 6 0 5 -34 187 -46 242 -6 29 -26 28 -61 -3z"></path><path id="pGPzcVxgA" d="M630 1270 c0 -14 7 -20 21 -20 11 0 27 -7 35 -15 9 -8 31 -15 49 -15 29 0 34 -4 37 -27 2 -17 12 -32 26 -38 12 -5 22 -18 22 -27 0 -13 8 -18 25 -18 31 0 31 5 0 51 -29 41 -92 89 -149 113 -51 21 -66 20 -66 -4z"></path><path id="pglMCmk5" d="M357 1222 c-23 -25 -54 -100 -62 -149 -6 -38 -4 -43 12 -43 14 0 21 12 31 53 6 29 12 60 12 70 0 9 7 17 15 17 10 0 15 11 15 35 0 40 -1 41 -23 17z"></path><path id="p6ROewkhf" d="M157 1178 c-29 -37 -67 -125 -67 -153 0 -8 9 -15 19 -15 15 0 22 12 32 50 7 28 16 50 21 50 4 0 8 6 8 14 0 8 5 16 11 18 6 2 9 19 7 38 l-3 35 -28 -37z"></path><path id="pMp5L8mbP" d="M1260 1185 c-7 -9 -14 -52 -15 -105 -3 -83 -1 -90 16 -90 17 0 19 8 19 85 0 69 3 85 15 85 8 0 15 9 15 20 0 24 -32 27 -50 5z"></path><path id="prnKepkWv" d="M1630 1180 c0 -11 7 -20 15 -20 8 0 15 -4 15 -10 0 -5 9 -10 20 -10 26 0 27 36 1 50 -31 16 -51 12 -51 -10z"></path><path id="pjSMTznBv" d="M230 1085 c0 -40 24 -49 34 -12 10 37 7 47 -14 47 -16 0 -20 -7 -20 -35z"></path><path id="p1UG65g2b" d="M860 1065 c0 -28 4 -35 20 -35 22 0 26 20 10 51 -16 30 -30 23 -30 -16z"></path><path id="pSyR06w8V" d="M550 1059 c0 -32 24 -99 36 -99 15 0 18 28 8 79 -5 21 -12 31 -25 31 -11 0 -19 -5 -19 -11z"></path><path id="pHk9cqFb0" d="M880 985 c0 -28 4 -35 20 -35 21 0 24 10 14 48 -10 36 -34 27 -34 -13z"></path><path id="pPrUokBvC" d="M1290 1006 c0 -18 31 -26 100 -26 69 0 100 8 100 26 0 11 -22 14 -100 14 -78 0 -100 -3 -100 -14z"></path><path id="p13gs5B9SG" d="M1590 1005 c0 -8 14 -17 34 -20 46 -9 70 -3 74 18 3 14 -5 17 -52 17 -42 0 -56 -4 -56 -15z"></path><path id="pmxjoF0Ps" d="M86 978 c-11 -42 -7 -58 14 -58 17 0 20 7 20 40 0 45 -23 57 -34 18z"></path><path id="plHB8hOi8" d="M296 953 c12 -78 17 -93 33 -84 10 7 12 23 6 70 -6 52 -10 61 -27 61 -17 0 -19 -5 -12 -47z"></path><path id="pJYoC9NUx" d="M230 947 c0 -13 5 -49 11 -80 9 -45 16 -57 30 -57 23 0 23 0 3 89 -11 46 -21 71 -30 71 -8 0 -14 -10 -14 -23z"></path><path id="pMGRQg8Rx" d="M1730 931 c0 -13 9 -21 30 -26 17 -4 30 -11 30 -16 0 -5 11 -9 25 -9 29 0 32 12 8 35 -35 36 -93 45 -93 16z"></path><path id="p1A8QZ8svm" d="M520 905 c0 -28 4 -35 20 -35 11 0 20 -5 20 -12 0 -6 2 -9 4 -7 3 3 0 24 -6 47 -13 52 -38 57 -38 7z"></path><path id="puG8ItIYN" d="M584 925 c14 -63 31 -105 43 -105 8 0 13 11 13 28 0 46 -11 72 -30 72 -10 0 -21 6 -24 13 -3 6 -4 3 -2 -8z"></path><path id="pGSUmmQC7" d="M84 853 c13 -95 28 -143 43 -143 13 0 14 9 9 48 -4 26 -9 68 -13 95 -4 38 -9 47 -25 47 -18 0 -20 -5 -14 -47z"></path><path id="puXmGPuc2" d="M550 813 c0 -14 8 -50 17 -80 14 -43 21 -53 39 -53 l22 0 -26 80 c-26 79 -52 106 -52 53z"></path><path id="p1DqS2iekb" d="M880 785 c0 -40 24 -49 34 -12 10 37 7 47 -14 47 -16 0 -20 -7 -20 -35z"></path><path id="ppikWyLJ2" d="M1810 775 c0 -27 1 -28 24 -19 24 9 20 44 -4 44 -15 0 -20 -7 -20 -25z"></path><path id="p1E7Oumlrn" d="M1102 773 c2 -10 13 -19 26 -21 17 -3 22 2 22 17 0 16 -6 21 -26 21 -19 0 -25 -5 -22 -17z"></path><path id="pZqwsNI2a" d="M1390 770 c0 -17 7 -20 40 -20 33 0 40 3 40 20 0 17 -7 20 -40 20 -33 0 -40 -3 -40 -20z"></path><path id="p16mH6c8Ao" d="M266 739 c-10 -51 -7 -79 8 -79 8 0 18 19 25 44 15 60 14 66 -8 66 -13 0 -20 -10 -25 -31z"></path><path id="p1GJ1IEFQ2" d="M360 751 c0 -9 68 -101 75 -101 3 0 5 16 5 35 0 24 -5 35 -15 35 -8 0 -15 9 -15 20 0 15 -7 20 -25 20 -14 0 -25 -4 -25 -9z"></path><path id="pTtj76qjB" d="M856 718 c-9 -36 -7 -78 5 -78 11 0 39 60 39 85 0 24 -37 18 -44 -7z"></path><path id="piGAXhwEz" d="M1510 700 c0 -13 7 -20 20 -20 13 0 20 7 20 20 0 13 -7 20 -20 20 -13 0 -20 -7 -20 -20z"></path><path id="pwwbIfDzq" d="M337 703 c-13 -13 -7 -43 9 -43 13 0 15 -8 9 -50 -8 -57 0 -62 41 -26 l28 23 -39 52 c-22 28 -40 51 -40 51 -1 0 -5 -3 -8 -7z"></path><path id="pf6VAYw9Y" d="M668 663 c20 -54 42 -68 42 -26 0 52 -11 73 -36 73 l-24 0 18 -47z"></path><path id="pXq3ZTzow" d="M130 674 c13 -32 61 -103 88 -127 19 -17 20 -17 35 20 l15 38 -44 9 c-37 7 -44 12 -44 31 0 38 -11 55 -36 55 -21 0 -23 -3 -14 -26z"></path><path id="p16MtiOvJ9" d="M626 645 c-9 -26 -7 -75 4 -75 6 0 10 -14 10 -30 0 -23 6 -33 25 -42 14 -6 27 -9 30 -6 3 2 -10 42 -29 87 -23 58 -35 78 -40 66z"></path><path id="psfQrNzcb" d="M1570 630 c0 -16 7 -20 35 -20 40 0 49 24 13 34 -38 10 -48 7 -48 -14z"></path><path id="pS3BGCrrm" d="M450 635 c0 -8 121 -95 131 -95 5 0 9 11 9 25 0 16 -6 25 -15 25 -8 0 -15 5 -15 10 0 6 -9 10 -20 10 -11 0 -20 7 -20 15 0 10 -11 15 -35 15 -19 0 -35 -2 -35 -5z"></path><path id="pRuceWoTL" d="M810 610 c0 -11 -7 -20 -15 -20 -10 0 -15 -10 -15 -31 0 -29 -2 -31 -30 -27 -27 4 -30 2 -24 -16 9 -29 13 -32 32 -20 22 14 102 112 102 124 0 6 -11 10 -25 10 -18 0 -25 -5 -25 -20z"></path><path id="pkHBt3Lp3" d="M1038 619 c-19 -11 -25 -49 -8 -49 6 0 10 -7 10 -15 0 -8 2 -15 4 -15 2 0 48 -9 101 -20 118 -24 115 -24 115 -2 0 16 -16 22 -100 37 -54 10 -97 21 -95 25 3 4 167 -26 366 -66 199 -41 372 -74 385 -74 15 0 24 6 24 15 0 8 -2 15 -4 15 -4 0 -724 146 -761 154 -11 3 -28 0 -37 -5z"></path><path id="p1DNMFghg1" d="M1660 611 c0 -18 39 -31 98 -31 44 0 23 28 -28 39 -67 14 -70 14 -70 -8z"></path><path id="pYr4IUh1w" d="M1510 585 c0 -8 2 -15 4 -15 2 0 48 -9 101 -20 118 -24 115 -24 115 -2 0 15 -16 21 -88 35 -109 21 -132 21 -132 2z"></path><path id="p12P70GkLI" d="M1800 581 c0 -17 6 -21 35 -21 32 0 35 -2 35 -31 0 -26 3 -30 23 -27 17 2 23 11 25 36 4 35 -9 44 -82 57 -32 6 -36 5 -36 -14z"></path><path id="pEIRr56ct" d="M290 559 c-14 -24 -9 -32 14 -23 17 7 23 44 6 44 -5 0 -14 -9 -20 -21z"></path><path id="ptRfPJs5Z" d="M1030 480 c-14 -26 -5 -57 18 -64 21 -7 662 -136 674 -136 4 0 8 8 8 18 0 15 -45 26 -327 82 -181 35 -330 65 -332 67 -20 14 32 8 179 -22 195 -39 220 -42 220 -20 0 8 -1 15 -3 15 -2 0 -93 18 -202 40 -109 22 -204 40 -211 40 -8 0 -18 -9 -24 -20z"></path><path id="pJmYNJPT1" d="M1430 475 c0 -8 1 -15 3 -15 2 0 104 -20 226 -45 166 -33 228 -42 242 -34 21 11 24 31 9 60 -14 26 -50 25 -50 -1 0 -11 5 -20 12 -20 6 0 9 -2 6 -5 -2 -3 -94 13 -203 35 -221 44 -245 47 -245 25z"></path><path id="p37fB84XV" d="M1500 390 c0 -16 7 -20 35 -20 40 0 49 24 13 34 -38 10 -48 7 -48 -14z"></path><path id="pS7yKLRLV" d="M1640 360 c0 -16 7 -20 35 -20 40 0 49 24 13 34 -38 10 -48 7 -48 -14z"></path><path id="p1DwP6DHdj" d="M1032 358 c-15 -15 -15 -29 2 -50 9 -12 53 -26 136 -43 146 -30 140 -30 140 -7 0 15 -20 22 -125 42 -117 22 -125 25 -125 47 0 25 -10 29 -28 11z"></path><path id="pHugevqqd" d="M1740 341 c0 -12 6 -21 15 -21 7 0 37 -5 65 -11 43 -9 50 -14 50 -35 0 -17 5 -24 20 -24 24 0 34 21 26 54 -6 25 -18 29 -138 51 -34 7 -38 5 -38 -14z"></path><path id="pzYx4W7on" d="M1170 332 c0 -15 44 -26 318 -80 174 -35 325 -63 335 -62 9 0 17 7 17 15 0 8 -1 15 -3 15 -2 0 -149 29 -327 65 -178 36 -328 65 -332 65 -4 0 -8 -8 -8 -18z"></path><path id="pvVGtCe8w" d="M1033 243 c-16 -6 -17 -55 -1 -71 19 -19 48 -15 48 7 0 11 -6 22 -12 24 -31 13 20 5 182 -28 195 -39 220 -42 220 -20 0 8 -1 15 -3 15 -2 0 -93 18 -202 40 -203 41 -211 42 -232 33z"></path><path id="pS6yPkh8u" d="M1480 216 c0 -13 28 -26 58 -26 6 0 12 9 12 20 0 16 -7 20 -35 20 -23 0 -35 -5 -35 -14z"></path><path id="pexLAAk36" d="M1570 195 c0 -8 2 -15 3 -15 2 0 71 -13 152 -30 81 -16 152 -30 157 -30 4 0 8 8 8 18 0 15 -22 22 -138 45 -160 31 -182 33 -182 12z"></path><path id="pFT2WJSx5" d="M1860 190 c0 -16 7 -20 30 -20 32 0 37 9 18 28 -19 19 -48 15 -48 -8z"></path><path id="p1HkU4kgrK" d="M1480 141 c0 -11 6 -22 13 -24 6 -3 2 -6 -10 -6 -27 -1 -31 -27 -5 -33 39 -11 71 27 52 62 -14 26 -50 27 -50 1z"></path></g></g><g id="l293kxaBaaSrf84VChx0omF" fill="rgb(104,110,137)" style="transform: none;"><g style="transform: none;"><path id="pXPgjkVFf" d="M1418 1353 c-10 -2 -18 -11 -18 -19 0 -10 13 -14 49 -14 28 0 53 -4 56 -10 4 -6 -16 -10 -54 -10 -45 0 -62 -4 -69 -16 -8 -14 -10 -12 -16 10 -6 23 -9 24 -25 14 -20 -12 -45 -57 -37 -65 6 -6 76 -8 193 -5 77 2 91 4 87 17 -5 11 1 15 20 15 35 0 33 14 -6 43 -55 40 -122 55 -180 40z"></path><path id="pbUWyyb2R" d="M428 1286 c-26 -19 -22 -26 16 -26 29 0 33 3 29 20 -6 23 -21 25 -45 6z"></path><path id="p1D5Mr61GI" d="M590 1280 c0 -16 7 -20 35 -20 40 0 49 24 13 34 -38 10 -48 7 -48 -14z"></path><path id="pj3nPonEZ" d="M259 1257 c-44 -22 -75 -48 -100 -81 -49 -65 -55 -86 -23 -86 20 0 24 5 24 30 0 23 4 30 20 30 11 0 20 7 20 15 0 8 7 15 15 15 9 0 18 7 21 15 4 8 12 15 20 15 8 0 14 7 14 15 0 10 10 15 28 15 17 0 38 10 52 25 l23 25 -25 0 c-15 0 -55 -15 -89 -33z"></path><path id="pDDW9Rz8V" d="M730 1225 c0 -22 4 -25 38 -25 l37 1 -28 24 c-36 32 -47 31 -47 0z"></path><path id="p1uddQRRw" d="M450 1205 c0 -28 4 -35 20 -35 21 0 24 10 14 48 -10 36 -34 27 -34 -13z"></path><path id="p35Eo2K08" d="M337 1191 c-22 -38 -22 -41 8 -41 22 0 25 4 25 35 0 43 -10 44 -33 6z"></path><path id="pyf8WUn94" d="M246 1178 c-3 -13 -6 -35 -6 -50 0 -46 25 -32 42 22 l16 50 -23 0 c-15 0 -25 -7 -29 -22z"></path><path id="pElVkR8iT" d="M1268 1189 c-29 -16 -21 -29 17 -29 28 0 35 4 35 20 0 22 -24 26 -52 9z"></path><path id="pEaPbACqW" d="M1550 1181 c0 -15 11 -19 72 -24 40 -3 74 -5 75 -3 2 2 1 10 -2 19 -8 19 -36 27 -97 27 -40 0 -48 -3 -48 -19z"></path><path id="p27zxlAxc" d="M544 1089 c3 -17 6 -35 6 -40 0 -5 7 -6 15 -3 9 4 15 19 15 40 0 28 -4 34 -21 34 -19 0 -21 -4 -15 -31z"></path><path id="pVB0FTQzp" d="M296 1068 c-14 -54 -2 -128 20 -128 11 0 14 18 14 75 0 57 -3 75 -14 75 -7 0 -16 -10 -20 -22z"></path><path id="p1HVf2Um9f" d="M96 1048 c-10 -38 -7 -48 14 -48 16 0 20 7 20 35 0 40 -24 49 -34 13z"></path><path id="p1HvPmunfT" d="M503 1053 c-14 -5 -16 -34 -7 -82 5 -21 12 -31 25 -31 22 0 23 9 6 71 -7 29 -17 44 -24 42z"></path><path id="punb1wrhb" d="M84 945 c-9 -47 3 -105 21 -105 12 0 15 15 15 70 0 55 -3 70 -15 70 -8 0 -17 -14 -21 -35z"></path><path id="plu92qY75" d="M580 948 c0 -30 13 -58 26 -58 9 0 14 12 14 35 0 28 -4 35 -20 35 -11 0 -20 -6 -20 -12z"></path><path id="pBhxl31ZP" d="M1178 943 c-33 -8 -20 -33 17 -33 28 0 35 4 35 20 0 20 -14 23 -52 13z"></path><path id="pPHY46c0a" d="M240 876 c0 -27 4 -34 24 -38 22 -4 23 -3 13 34 -12 48 -37 51 -37 4z"></path><path id="peizU3uHn" d="M313 871 c9 -46 35 -101 46 -101 6 0 11 16 11 35 0 19 -4 35 -10 35 -5 0 -10 14 -10 30 0 24 -4 30 -21 30 -18 0 -21 -4 -16 -29z"></path><path id="p11vVgjaWm" d="M540 836 c0 -27 4 -34 24 -38 22 -4 23 -3 13 34 -12 48 -37 51 -37 4z"></path><path id="pWEVk4RYp" d="M613 828 c12 -48 37 -51 37 -4 0 27 -4 34 -24 38 -22 4 -23 3 -13 -34z"></path><path id="pj8IEsdfk" d="M90 818 c0 -30 13 -58 26 -58 9 0 14 12 14 35 0 28 -4 35 -20 35 -11 0 -20 -6 -20 -12z"></path><path id="pjsrLVc6c" d="M876 793 c-9 -60 -7 -83 8 -83 9 0 18 19 25 50 14 67 14 70 -8 70 -14 0 -20 -10 -25 -37z"></path><path id="pCGwilqMD" d="M270 785 c0 -28 4 -35 20 -35 22 0 26 20 10 51 -16 30 -30 23 -30 -16z"></path><path id="pHJ3WL61F" d="M1100 782 c0 -24 18 -32 76 -32 37 0 44 3 44 20 0 15 -7 20 -29 20 -16 0 -43 3 -60 6 -26 6 -31 4 -31 -14z"></path><path id="pvq6e6ZD2" d="M1310 771 c0 -19 10 -20 256 -20 250 -1 284 2 284 30 0 5 -121 9 -270 9 -260 0 -270 -1 -270 -19z"></path><path id="ppo8qFbXX" d="M110 734 c0 -21 18 -54 30 -54 6 0 10 16 10 35 0 28 -4 35 -20 35 -11 0 -20 -7 -20 -16z"></path><path id="pNnlgHZ3T" d="M653 708 c19 -46 37 -48 37 -4 0 32 -3 36 -25 36 -24 0 -25 -1 -12 -32z"></path><path id="plruFfuRH" d="M381 725 c0 -5 15 -28 34 -50 l34 -40 1 38 c0 34 -2 37 -29 37 -16 0 -32 6 -34 13 -3 6 -6 8 -6 2z"></path><path id="pBrjb3XvD" d="M590 693 c0 -52 11 -73 36 -73 l24 0 -18 47 c-20 54 -42 68 -42 26z"></path><path id="p17OHK2GYA" d="M1510 696 c0 -20 5 -26 21 -26 15 0 20 5 17 22 -5 34 -38 37 -38 4z"></path><path id="pX3JMW9Sd" d="M311 619 c-30 -89 -30 -90 -8 -83 33 10 97 47 97 56 0 4 -11 8 -25 8 -14 0 -25 5 -25 10 0 6 14 10 31 10 l30 0 -32 45 c-18 25 -33 45 -35 45 -1 0 -16 -41 -33 -91z"></path><path id="pY8k23Tri" d="M240 655 c-13 -45 -40 -62 -40 -25 0 15 -7 20 -25 20 -14 0 -25 -4 -25 -9 0 -16 72 -102 83 -98 12 4 56 112 56 140 1 10 -6 17 -18 17 -13 0 -22 -12 -31 -45z"></path><path id="pH6IvFYAD" d="M840 670 c0 -11 -4 -20 -10 -20 -5 0 -10 -16 -10 -35 0 -19 4 -35 8 -35 9 0 37 45 51 83 10 25 8 27 -14 27 -18 0 -25 -5 -25 -20z"></path><path id="pQ87WffQ3" d="M1610 620 c0 -16 7 -20 35 -20 40 0 49 24 13 34 -38 10 -48 7 -48 -14z"></path><path id="pPqtwzlSG" d="M701 578 c25 -63 28 -68 40 -68 5 0 9 16 9 35 0 19 -4 35 -10 35 -5 0 -10 11 -10 25 0 20 -5 25 -25 25 l-25 0 21 -52z"></path><path id="p83uQGsEU" d="M630 576 c0 -20 5 -36 10 -36 6 0 10 -8 10 -19 0 -15 37 -38 46 -28 1 1 -8 26 -20 56 -26 66 -46 78 -46 27z"></path><path id="pkR9IPbPc" d="M1750 590 c0 -16 7 -20 35 -20 40 0 49 24 13 34 -38 10 -48 7 -48 -14z"></path><path id="poiLWrBmO" d="M1840 570 c0 -16 7 -20 35 -20 39 0 46 14 16 30 -31 16 -51 12 -51 -10z"></path><path id="pjKKl0ePv" d="M1710 546 c0 -14 27 -22 133 -41 32 -6 37 -5 37 12 0 16 -11 22 -64 31 -83 16 -106 15 -106 -2z"></path><path id="p1Epu64WHe" d="M1240 515 c0 -8 2 -15 4 -15 2 0 58 -11 126 -25 146 -30 140 -29 140 -7 0 15 -19 22 -113 40 -134 26 -157 27 -157 7z"></path><path id="pvJmQE559" d="M1660 481 c0 -15 16 -21 105 -37 58 -10 105 -22 105 -26 0 -4 11 -8 25 -8 14 0 25 4 25 9 0 24 -36 39 -137 59 -130 26 -123 26 -123 3z"></path><path id="p1H44pXbTE" d="M1023 464 c-3 -9 3 -25 16 -37 l21 -21 0 37 c0 27 -4 37 -15 37 -9 0 -18 -7 -22 -16z"></path><path id="pbvtEaYfO" d="M1340 422 c0 -15 22 -22 138 -45 160 -31 182 -33 182 -12 0 8 -2 15 -3 15 -2 0 -71 14 -152 30 -81 17 -152 30 -157 30 -4 0 -8 -8 -8 -18z"></path><path id="pwxPjKNIH" d="M1070 351 c0 -18 39 -31 98 -31 44 0 23 28 -28 39 -67 14 -70 14 -70 -8z"></path><path id="p16fwaWfn3" d="M1690 350 c0 -16 7 -20 35 -20 40 0 49 24 13 34 -38 10 -48 7 -48 -14z"></path><path id="pEVT6G4p4" d="M1710 296 c0 -14 27 -22 133 -41 32 -6 37 -5 37 12 0 16 -11 22 -64 31 -83 16 -106 15 -106 -2z"></path><path id="pkKeaYMrp" d="M1290 255 c0 -8 2 -15 4 -15 2 0 48 -9 101 -20 118 -24 115 -24 115 -2 0 15 -16 21 -88 35 -109 21 -132 21 -132 2z"></path><path id="p1FhRJNmu0" d="M1760 211 c0 -17 9 -21 60 -27 33 -4 60 -11 60 -15 0 -5 -4 -9 -10 -9 -5 0 -10 -9 -10 -20 0 -13 7 -20 19 -20 25 0 43 24 39 52 -3 25 -36 39 -115 53 -39 6 -43 5 -43 -14z"></path><path id="ps3Zrss67" d="M1060 175 c0 -8 2 -15 4 -15 2 0 58 -11 126 -25 146 -30 140 -29 140 -7 0 15 -19 22 -113 40 -134 26 -157 27 -157 7z"></path><path id="pE2S5aSil" d="M1440 150 c0 -15 7 -20 25 -20 14 0 25 -4 25 -10 0 -5 9 -10 20 -10 33 0 25 36 -11 49 -46 16 -59 14 -59 -9z"></path></g></g><g id="l6foOgfpXS5UesJckoAwBri" fill="rgb(119,125,148)" style="transform: none;"><g style="transform: none;"><path id="p14TEn1M3G" d="M1435 1350 c-48 -7 -72 -20 -104 -54 -20 -21 -21 -26 -8 -26 9 0 17 -7 17 -15 0 -10 10 -15 34 -15 21 0 36 6 40 15 4 11 23 15 81 15 41 0 75 3 75 8 0 4 -9 21 -19 38 -21 35 -50 43 -116 34z"></path><path id="p5RsiWlTq" d="M530 1295 c0 -8 -5 -15 -11 -15 -11 0 -10 -16 12 -127 7 -37 15 -53 26 -53 16 0 16 27 -3 133 -6 35 -5 37 20 37 32 0 35 25 4 34 -36 9 -48 7 -48 -9z"></path><path id="pJLAmYrMN" d="M425 1281 c-40 -24 -69 -57 -94 -107 -40 -77 -51 -214 -17 -214 9 0 15 26 19 82 4 46 11 84 17 86 5 2 10 15 10 28 0 15 6 24 15 24 10 0 15 10 15 31 l0 31 45 -6 c48 -8 51 -4 39 42 -8 27 -11 27 -49 3z"></path><path id="p18DVJiWLh" d="M297 1275 c-45 -17 -113 -65 -134 -95 -15 -21 -14 -21 18 -18 29 2 35 7 37 31 3 23 8 27 33 27 19 0 29 -5 29 -15 0 -23 14 -18 32 13 9 15 26 37 38 50 19 20 19 22 3 21 -10 0 -35 -7 -56 -14z"></path><path id="pgh5MuxJr" d="M650 1265 c0 -22 4 -25 36 -25 44 0 42 18 -4 37 -31 13 -32 12 -32 -12z"></path><path id="p1R4jLQMV" d="M1278 1193 c-10 -2 -18 -11 -18 -19 0 -12 30 -14 175 -14 142 0 175 3 175 14 0 7 -10 16 -22 20 -26 7 -284 6 -310 -1z"></path><path id="p12ujtyAUW" d="M1660 1091 c0 -85 1 -91 20 -91 20 0 21 5 18 87 -3 74 -6 88 -20 91 -16 3 -18 -6 -18 -87z"></path><path id="pYnJ6XUqy" d="M830 1130 c0 -31 18 -80 30 -80 4 0 11 -25 15 -55 5 -45 10 -55 26 -55 23 0 23 9 4 85 -16 61 -53 135 -67 135 -4 0 -8 -13 -8 -30z"></path><path id="p1G9XegofJ" d="M230 1095 c0 -40 24 -49 34 -12 10 37 7 47 -14 47 -16 0 -20 -7 -20 -35z"></path><path id="pklS4AN2D" d="M480 1055 c0 -28 4 -35 20 -35 21 0 24 10 14 48 -10 36 -34 27 -34 -13z"></path><path id="pJdlc6dFQ" d="M550 1070 c0 -36 34 -140 46 -140 17 0 18 32 2 99 -9 38 -16 51 -30 51 -10 0 -18 -5 -18 -10z"></path><path id="p83WfjHbI" d="M96 1038 c-10 -38 -7 -48 14 -48 16 0 20 7 20 35 0 40 -24 49 -34 13z"></path><path id="p1E9bEUNYS" d="M510 935 c0 -19 5 -35 10 -35 6 0 10 -16 10 -35 0 -28 4 -35 20 -35 24 0 24 4 3 80 -18 68 -43 82 -43 25z"></path><path id="pbqxzQ4pj" d="M230 925 c0 -28 4 -35 20 -35 21 0 24 10 14 48 -10 36 -34 27 -34 -13z"></path><path id="p1Co4FVmoB" d="M1720 930 c0 -16 7 -20 35 -20 40 0 49 24 13 34 -38 10 -48 7 -48 -14z"></path><path id="p7JaThh9O" d="M1129 911 c-34 -35 -39 -71 -9 -71 12 0 22 9 26 24 3 15 15 27 30 30 15 4 24 14 24 26 0 30 -36 25 -71 -9z"></path><path id="pVaBUgeL8" d="M1810 875 c0 -28 4 -35 20 -35 22 0 26 20 10 51 -16 30 -30 23 -30 -16z"></path><path id="p1dEALVxB" d="M250 835 c0 -30 3 -35 24 -35 23 0 24 2 13 35 -6 19 -16 35 -24 35 -8 0 -13 -13 -13 -35z"></path><path id="p1EoCZj7vQ" d="M880 805 c0 -40 24 -49 34 -12 10 37 7 47 -14 47 -16 0 -20 -7 -20 -35z"></path><path id="ptVyF7QOa" d="M623 801 c16 -79 57 -133 57 -75 0 51 -22 104 -43 104 -16 0 -19 -5 -14 -29z"></path><path id="pnxFS8Efe" d="M100 778 c0 -30 13 -58 26 -58 9 0 14 12 14 35 0 28 -4 35 -20 35 -11 0 -20 -6 -20 -12z"></path><path id="pp6iLR4gb" d="M1160 776 c0 -18 31 -26 105 -26 74 0 105 8 105 26 0 11 -22 14 -105 14 -83 0 -105 -3 -105 -14z"></path><path id="pEIopo71u" d="M270 745 c0 -40 24 -49 34 -12 10 37 7 47 -14 47 -16 0 -20 -7 -20 -35z"></path><path id="p11l8kM99h" d="M350 772 c0 -5 15 -29 33 -53 l32 -44 3 35 c2 19 -1 36 -7 38 -6 2 -11 10 -11 18 0 8 -10 14 -25 14 -14 0 -25 -4 -25 -8z"></path><path id="peGaYk3PW" d="M1510 690 c0 -25 4 -30 25 -30 20 0 25 -5 25 -25 0 -22 4 -25 35 -25 45 0 47 24 3 36 -23 7 -37 19 -47 42 -19 41 -41 42 -41 2z"></path><path id="pCMvynozO" d="M340 666 c0 -33 2 -36 31 -36 l30 0 -21 30 c-31 44 -40 45 -40 6z"></path><path id="pE69EkDMd" d="M830 645 c0 -16 -6 -25 -15 -25 -8 0 -15 -9 -15 -20 0 -11 -7 -20 -15 -20 -8 0 -15 -9 -15 -20 0 -13 -7 -20 -20 -20 -13 0 -20 -7 -20 -19 0 -50 48 -21 102 61 50 76 53 88 23 88 -20 0 -25 -5 -25 -25z"></path><path id="pginrYVnG" d="M465 624 c38 -34 40 -34 43 -14 6 38 -5 50 -45 50 l-38 -1 40 -35z"></path><path id="pOv88fz9N" d="M610 626 c0 -32 3 -36 25 -36 24 0 25 1 12 32 -19 46 -37 48 -37 4z"></path><path id="p11In3iQ6d" d="M1450 631 c0 -23 45 -61 71 -61 12 0 19 7 19 20 0 15 -7 20 -25 20 -18 0 -25 5 -25 20 0 13 -7 20 -20 20 -13 0 -20 -7 -20 -19z"></path><path id="pJRP9udaG" d="M1650 611 c0 -18 39 -31 98 -31 44 0 23 28 -28 39 -67 14 -70 14 -70 -8z"></path><path id="p7eVUaGW3" d="M360 605 c0 -9 -9 -15 -25 -15 -20 0 -25 -5 -25 -25 0 -28 11 -26 73 12 45 28 47 43 7 43 -20 0 -30 -5 -30 -15z"></path><path id="p142PpC0NR" d="M1070 600 c0 -16 7 -20 35 -20 40 0 49 24 13 34 -38 10 -48 7 -48 -14z"></path><path id="pKAmSG7bA" d="M195 576 c23 -35 44 -40 54 -13 10 26 -2 37 -42 37 -27 0 -27 -1 -12 -24z"></path><path id="pFGIqXM2I" d="M1020 581 c0 -25 17 -38 63 -46 33 -7 37 -5 37 14 0 17 -6 21 -30 21 -20 0 -30 5 -30 15 0 8 -9 15 -20 15 -13 0 -20 -7 -20 -19z"></path><path id="pJvK0LhOS" d="M1170 583 c0 -15 36 -25 238 -66 130 -26 245 -48 255 -47 9 0 17 7 17 15 0 8 -2 15 -4 15 -2 0 -112 23 -245 50 -133 28 -246 50 -251 50 -6 0 -10 -8 -10 -17z"></path><path id="p15VA6LCHV" d="M1790 580 c0 -16 7 -20 35 -20 40 0 49 24 13 34 -38 10 -48 7 -48 -14z"></path><path id="paJho91do" d="M540 572 c0 -8 52 -42 64 -42 3 0 6 11 6 25 0 22 -4 25 -35 25 -19 0 -35 -4 -35 -8z"></path><path id="peL1TzoxY" d="M620 530 c0 -11 62 -42 68 -35 2 2 1 13 -3 24 -4 15 -15 21 -36 21 -16 0 -29 -5 -29 -10z"></path><path id="pDAV4yOsD" d="M1036 484 c-20 -20 -20 -27 2 -52 13 -15 68 -30 252 -66 129 -25 238 -46 243 -46 4 0 7 8 7 18 0 15 -32 24 -222 61 -123 24 -230 48 -238 53 -10 6 -7 7 10 3 240 -50 270 -53 270 -30 0 8 -2 15 -3 15 -2 0 -71 14 -152 30 -81 17 -149 30 -151 30 -1 0 -10 -7 -18 -16z"></path><path id="p10SC5h8FK" d="M1490 466 c0 -10 19 -18 53 -25 259 -53 342 -68 353 -64 25 9 27 44 5 66 l-21 21 0 -20 c0 -11 -2 -23 -5 -26 -3 -3 -80 10 -172 28 -186 38 -213 40 -213 20z"></path><path id="py7HQYeX2" d="M1026 344 c-9 -22 11 -54 34 -54 13 0 20 7 20 20 0 11 -4 20 -10 20 -5 0 -10 7 -10 15 0 20 -26 19 -34 -1z"></path><path id="poiCfioSh" d="M1780 331 c0 -18 39 -31 98 -31 44 0 23 28 -28 39 -67 14 -70 14 -70 -8z"></path><path id="pG4nq3JEV" d="M1360 292 c0 -15 29 -23 193 -55 214 -42 227 -43 227 -22 0 8 -1 15 -3 15 -2 0 -93 18 -202 40 -109 22 -202 40 -207 40 -4 0 -8 -8 -8 -18z"></path><path id="prtrtWNuv" d="M1040 235 c0 -8 -4 -15 -10 -15 -18 0 -10 -39 10 -50 18 -9 20 -8 20 15 0 14 1 25 3 25 2 0 82 -16 177 -35 195 -39 220 -42 220 -20 0 8 -1 15 -3 15 -2 0 -93 18 -202 40 -109 22 -202 40 -207 40 -4 0 -8 -7 -8 -15z"></path><path id="p1DZCp6Ymj" d="M1530 205 c0 -8 1 -15 3 -15 2 0 81 -16 176 -35 95 -19 177 -32 182 -29 31 19 -3 32 -154 62 -185 36 -207 38 -207 17z"></path><path id="pDmohoLMc" d="M1310 126 c0 -14 27 -22 133 -41 32 -6 37 -5 37 12 0 16 -11 22 -64 31 -83 16 -106 15 -106 -2z"></path></g></g><g id="l4dHJedxr372I1o6K37ORIJ" fill="rgb(101,163,163)" style="transform: none;"><g style="transform: none;"><path id="pS95dLU1Z" d="M510 1291 c0 -105 127 -565 209 -754 20 -47 21 -48 45 -32 23 16 96 112 96 128 0 4 -11 7 -25 7 -22 0 -25 -4 -25 -34 0 -29 -4 -34 -29 -38 -27 -4 -29 -2 -62 86 -18 50 -37 92 -41 94 -4 2 -8 14 -8 26 0 13 -9 49 -21 82 -22 64 -82 302 -94 372 l-7 43 29 -7 c53 -12 158 -57 166 -70 4 -8 17 -14 27 -14 12 0 20 -7 20 -17 1 -26 35 -63 59 -63 25 0 25 3 7 39 -37 71 -148 139 -261 160 -79 15 -85 14 -85 -8z"></path><path id="plZZwl3cr" d="M409 1268 c-54 -42 -95 -117 -108 -195 -11 -68 -6 -103 15 -103 9 0 14 12 14 37 0 42 31 153 42 153 4 0 8 6 9 13 0 6 13 22 29 35 l29 23 5 -23 c3 -13 10 -50 16 -83 30 -159 132 -506 151 -513 18 -7 9 -42 -11 -42 -11 0 -20 7 -20 15 0 8 -7 15 -15 15 -8 0 -15 5 -15 10 0 6 -13 10 -30 10 -25 0 -30 4 -30 23 0 25 -28 57 -48 57 -7 0 -12 9 -12 20 0 13 -7 20 -20 20 -14 0 -20 7 -20 24 0 13 -9 45 -20 71 -11 26 -23 64 -26 86 -5 30 -11 39 -27 39 -17 0 -19 -4 -13 -41 26 -165 141 -309 311 -394 40 -19 74 -35 78 -35 3 0 -7 32 -24 72 -73 177 -155 466 -190 671 -6 37 -15 67 -19 67 -5 0 -27 -15 -51 -32z"></path><path id="pmtWsa3Rf" d="M275 1261 c-106 -51 -167 -137 -181 -254 -6 -52 -5 -57 13 -57 15 0 23 11 32 43 14 46 52 117 73 134 11 9 13 -12 14 -115 1 -89 6 -143 19 -182 9 -30 17 -64 17 -75 1 -34 -15 -100 -25 -106 -5 -4 -12 -28 -15 -54 -4 -38 -2 -47 9 -43 15 5 42 71 65 158 13 51 13 59 -7 115 -14 38 -23 95 -27 156 -5 115 11 182 63 258 20 29 30 51 23 51 -7 0 -40 -13 -73 -29z"></path><path id="p17WSQME76" d="M864 1044 c19 -137 18 -134 39 -134 18 0 19 4 13 50 -9 69 -28 123 -45 128 -11 4 -13 -5 -7 -44z"></path><path id="pkbbv5xJW" d="M880 837 c0 -19 -7 -56 -15 -83 -18 -61 -20 -107 -2 -102 16 6 43 89 52 161 7 54 6 57 -14 57 -17 0 -21 -6 -21 -33z"></path><path id="pY5D6CCOR" d="M90 837 c0 -67 63 -222 104 -257 14 -11 16 -8 16 23 0 19 -4 37 -8 39 -14 6 -62 126 -68 172 -5 36 -11 46 -25 46 -13 0 -19 -7 -19 -23z"></path><path id="p1FwmFwj0d" d="M313 620 l-30 -88 26 9 c41 16 111 59 111 69 0 5 -5 12 -11 15 -6 4 -23 24 -38 45 l-28 39 -30 -89z"></path><path id="pk4qE68zR" d="M1600 620 c0 -16 7 -20 35 -20 40 0 49 24 13 34 -38 10 -48 7 -48 -14z"></path><path id="plLc47hpZ" d="M1690 601 c0 -18 39 -31 98 -31 44 0 23 28 -28 39 -67 14 -70 14 -70 -8z"></path><path id="p170oRmnbD" d="M1830 570 c0 -19 -4 -20 -55 -14 -46 6 -55 4 -55 -9 0 -15 23 -22 133 -42 33 -6 37 -5 37 13 0 15 -8 22 -27 25 -26 4 -26 4 5 6 37 1 44 25 10 35 -38 10 -48 7 -48 -14z"></path><path id="pvlEW0PRo" d="M1260 561 c0 -15 14 -21 78 -32 57 -10 68 -15 45 -17 -51 -5 -41 -29 17 -41 67 -15 70 -14 70 8 0 14 -8 21 -27 24 -26 4 -26 4 5 6 21 0 32 6 32 16 0 8 -2 15 -4 15 -2 0 -48 9 -101 20 -118 24 -115 24 -115 1z"></path><path id="pe76rn3NT" d="M1042 488 c-19 -19 -14 -28 18 -28 32 0 42 23 14 34 -20 8 -18 8 -32 -6z"></path><path id="p1EvrjKYZ7" d="M1650 482 c0 -15 20 -22 125 -42 69 -13 128 -20 132 -17 16 17 -29 36 -132 56 -132 25 -125 25 -125 3z"></path><path id="pHPILeihU" d="M1280 432 c0 -15 25 -23 163 -50 185 -36 207 -38 207 -17 0 8 -1 15 -3 15 -2 0 -82 16 -177 35 -95 19 -177 35 -182 35 -4 0 -8 -8 -8 -18z"></path><path id="pDbUDOPjf" d="M1060 355 c0 -8 -9 -15 -20 -15 -14 0 -18 -5 -13 -17 13 -35 43 -44 43 -13 0 16 7 20 30 20 36 0 41 25 8 34 -36 9 -48 7 -48 -9z"></path><path id="p13IY3gfT3" d="M1680 350 c0 -16 7 -20 35 -20 40 0 49 24 13 34 -38 10 -48 7 -48 -14z"></path><path id="prfC2C33V" d="M1880 310 c0 -24 -5 -24 -90 -5 -86 19 -120 19 -120 0 0 -8 2 -15 4 -15 2 0 50 -10 107 -21 72 -15 104 -18 107 -10 2 6 10 11 18 11 17 0 19 31 2 48 -18 18 -28 15 -28 -8z"></path><path id="ptvxFkkZG" d="M1350 246 c0 -14 27 -22 133 -41 32 -6 37 -5 37 12 0 16 -11 22 -64 31 -83 16 -106 15 -106 -2z"></path><path id="p5AhlRwjn" d="M1032 238 c-20 -20 -14 -28 19 -28 24 0 30 4 27 17 -4 22 -29 28 -46 11z"></path><path id="pCsJsvUh1" d="M1750 210 c0 -16 9 -20 60 -26 33 -4 60 -11 60 -15 0 -5 -7 -9 -15 -9 -23 0 -18 -27 7 -33 43 -12 72 25 49 61 -5 8 -37 20 -72 28 -84 18 -89 17 -89 -6z"></path><path id="p6gYSgCCN" d="M1540 206 c0 -13 28 -26 58 -26 6 0 12 9 12 20 0 16 -7 20 -35 20 -23 0 -35 -5 -35 -14z"></path><path id="pfL00Snlv" d="M1070 176 c0 -13 28 -26 58 -26 6 0 12 9 12 20 0 16 -7 20 -35 20 -23 0 -35 -5 -35 -14z"></path><path id="pK9Wwi0lc" d="M1330 173 c0 -16 10 -22 53 -30 42 -8 46 -11 20 -12 -53 -2 -41 -28 17 -40 67 -15 70 -14 70 8 0 14 -8 21 -27 24 -26 4 -26 4 5 6 50 2 41 28 -15 39 -120 26 -123 26 -123 5z"></path></g></g><g id="l3dZkjlAsIvpkBFVX16Tmja" fill="rgb(137,143,165)" style="transform: none;"><g style="transform: none;"><path id="pgW96Crux" d="M1395 1340 c-23 -9 -39 -26 -48 -52 -5 -15 0 -18 31 -18 36 0 38 2 49 40 11 43 7 46 -32 30z"></path><path id="p3jIer0X2" d="M1493 1173 l-63 -4 0 -84 0 -85 133 0 133 0 -1 88 -1 87 -69 1 c-39 0 -98 -1 -132 -3z"></path><path id="p5s0QIfIr" d="M1250 1085 l0 -85 50 0 50 0 0 85 0 85 -50 0 -50 0 0 -85z"></path><path id="p3liImS07" d="M1660 930 c0 -18 7 -20 60 -20 44 0 60 4 60 14 0 16 -30 26 -82 26 -31 0 -38 -4 -38 -20z"></path><path id="pWu9UR7uJ" d="M1120 590 c0 -16 7 -20 35 -20 40 0 49 24 13 34 -38 10 -48 7 -48 -14z"></path><path id="pFXSwZI0c" d="M1520 585 c0 -8 2 -15 4 -15 2 0 48 -9 101 -20 118 -24 115 -24 115 -2 0 15 -16 21 -88 35 -109 21 -132 21 -132 2z"></path><path id="pqGENVvhz" d="M1100 545 c0 -8 2 -15 4 -15 2 0 58 -11 126 -25 146 -30 140 -29 140 -7 0 15 -19 22 -113 40 -134 26 -157 27 -157 7z"></path><path id="p1GEY5YgZA" d="M1031 472 c-6 -11 -6 -24 0 -35 16 -28 29 -20 29 18 0 38 -13 46 -29 17z"></path><path id="pn7zAXIyG" d="M1880 410 c0 -32 11 -38 29 -16 14 16 4 46 -15 46 -9 0 -14 -11 -14 -30z"></path><path id="p1GBZqSoSC" d="M1630 360 c0 -19 -4 -20 -55 -14 -46 6 -55 4 -55 -9 0 -15 23 -22 133 -42 33 -6 37 -5 37 13 0 15 -8 22 -27 25 -26 4 -26 4 5 6 37 1 44 25 10 35 -38 10 -48 7 -48 -14z"></path><path id="pys1BKMe0" d="M1030 351 c-7 -14 -5 -24 8 -40 13 -16 50 -28 166 -51 82 -17 153 -30 158 -30 4 0 8 9 8 19 0 14 -8 21 -27 24 -26 4 -26 4 5 6 21 0 32 6 32 16 0 8 -2 15 -4 15 -2 0 -58 11 -126 25 -147 30 -140 30 -140 5 0 -15 -7 -20 -25 -20 -20 0 -25 5 -25 25 0 30 -15 33 -30 6z"></path><path id="pRkAWv3z3" d="M1730 340 c0 -16 7 -20 35 -20 40 0 49 24 13 34 -38 10 -48 7 -48 -14z"></path><path id="p1Flvjna6B" d="M1490 216 c0 -13 28 -26 58 -26 6 0 12 9 12 20 0 16 -7 20 -35 20 -23 0 -35 -5 -35 -14z"></path><path id="pNWMyi1b8" d="M1020 201 c0 -16 31 -41 51 -41 23 0 26 35 3 44 -24 9 -54 7 -54 -3z"></path><path id="pbl3whnB6" d="M1120 165 c0 -8 2 -15 4 -15 2 0 58 -11 126 -25 146 -30 140 -29 140 -7 0 15 -19 22 -113 40 -134 26 -157 27 -157 7z"></path><path id="pIo00Qdgl" d="M1880 154 c0 -33 33 -30 38 4 3 17 -2 22 -17 22 -16 0 -21 -6 -21 -26z"></path></g></g><g id="l2Y4m7vwD9BKBMOVABkBtYe" fill="rgb(110,186,177)" style="transform: none;"><g style="transform: none;"><path id="p1CVtJ9ged" d="M435 1282 c-40 -25 -92 -85 -110 -129 -20 -48 -19 -63 5 -63 13 0 20 7 20 19 0 10 20 40 44 66 49 53 49 53 62 -37 5 -38 10 -48 25 -48 22 0 22 -1 1 117 l-17 93 -30 -18z"></path><path id="peOk2rCHo" d="M516 1258 c4 -24 13 -74 20 -111 8 -38 14 -70 14 -73 0 -2 7 -4 15 -4 19 0 19 33 1 119 l-14 63 31 -6 c77 -16 245 -120 247 -153 0 -7 4 -13 8 -13 15 0 42 -128 42 -199 0 -55 3 -71 14 -71 31 0 31 135 0 238 -19 65 -79 146 -132 182 -54 36 -158 70 -213 70 l-39 0 6 -42z"></path><path id="pGTMhgX2M" d="M279 1235 c-101 -53 -177 -176 -187 -301 -9 -129 44 -298 116 -367 l29 -28 21 58 c12 32 28 83 35 113 13 50 13 59 -3 101 -10 25 -24 82 -30 127 -15 101 -3 183 39 265 16 31 29 57 28 57 -1 -1 -23 -12 -48 -25z"></path><path id="pY3kHjvBb" d="M480 1046 c0 -37 22 -126 32 -126 4 0 8 -16 8 -35 0 -28 4 -35 20 -35 25 0 25 -5 -6 118 -18 66 -32 102 -41 102 -7 0 -13 -11 -13 -24z"></path><path id="pzuwaZfsW" d="M580 968 c0 -33 34 -128 46 -128 17 0 18 35 2 95 -9 32 -17 45 -30 45 -10 0 -18 -5 -18 -12z"></path><path id="pUG8xq87S" d="M300 960 c0 -58 62 -223 93 -249 15 -12 17 -10 17 22 0 20 -7 42 -15 51 -8 8 -15 22 -15 30 0 9 -4 16 -8 16 -5 0 -15 32 -22 70 -11 57 -17 70 -32 70 -10 0 -18 -4 -18 -10z"></path><path id="pdNosrDVy" d="M550 794 c0 -15 5 -44 12 -65 9 -30 16 -39 34 -39 l22 0 -21 65 c-21 66 -47 87 -47 39z"></path><path id="psktlE6Wu" d="M864 750 c-4 -27 -10 -50 -14 -50 -10 0 -30 -47 -30 -70 0 -11 -7 -20 -15 -20 -11 0 -15 -11 -15 -36 0 -31 2 -35 15 -24 24 20 72 111 89 169 21 70 20 81 -4 81 -16 0 -21 -9 -26 -50z"></path><path id="pm4S9I2HW" d="M640 764 c0 -21 18 -54 30 -54 6 0 10 16 10 35 0 28 -4 35 -20 35 -11 0 -20 -7 -20 -16z"></path><path id="p7ydsfYjd" d="M318 623 c-14 -43 -24 -80 -23 -82 6 -6 92 39 105 54 13 15 8 26 -38 83 l-18 24 -26 -79z"></path><path id="pPwVX178q" d="M683 638 c19 -46 37 -48 37 -4 0 32 -3 36 -25 36 -24 0 -25 -1 -12 -32z"></path><path id="p14rIke1fV" d="M610 616 c0 -20 5 -36 10 -36 6 0 10 -14 10 -30 0 -23 6 -33 25 -42 14 -6 27 -9 30 -6 8 8 -50 141 -63 146 -8 2 -12 -9 -12 -32z"></path><path id="piw8gf5HT" d="M480 616 c13 -16 103 -76 113 -76 4 0 7 11 7 25 0 21 -5 25 -30 25 -23 0 -30 4 -30 20 0 16 -7 20 -36 20 -31 0 -35 -2 -24 -14z"></path><path id="p3lerDm7H" d="M723 538 c19 -46 37 -48 37 -4 0 32 -3 36 -25 36 -24 0 -25 -1 -12 -32z"></path></g></g><g id="l2BPjUu1kN15rX4vBsSexFW" fill="rgb(150,155,177)" style="transform: none;"><g style="transform: none;"><path id="p2QO9NXoh" d="M1257 1184 c-4 -4 -7 -16 -7 -26 0 -14 8 -18 35 -18 24 0 35 -5 35 -15 0 -8 -14 -17 -35 -21 -25 -4 -35 -11 -35 -25 0 -15 7 -19 35 -19 24 0 35 -5 35 -15 0 -8 -7 -15 -15 -15 -8 0 -15 -7 -15 -15 0 -12 18 -15 100 -15 82 0 100 3 100 15 0 8 -7 15 -15 15 -8 0 -15 7 -15 15 0 11 13 15 53 15 66 0 97 9 97 26 0 10 -15 14 -52 14 -67 0 -98 9 -98 26 0 10 15 14 53 14 66 0 97 9 97 26 0 11 -28 14 -144 14 -79 0 -156 3 -172 6 -16 3 -32 2 -37 -2z"></path><path id="p17vQQIOYM" d="M1660 1170 c0 -13 7 -20 20 -20 23 0 26 10 8 28 -18 18 -28 15 -28 -8z"></path><path id="p17t7zf3xq" d="M1188 944 c-10 -3 -18 -12 -18 -20 0 -12 44 -14 282 -14 284 0 348 -7 348 -37 0 -7 11 -13 25 -13 21 0 23 3 16 22 -4 12 -20 31 -35 43 -26 19 -43 20 -314 22 -158 1 -295 -1 -304 -3z"></path><path id="p3mqUToIL" d="M1030 605 c-15 -18 -6 -45 15 -45 10 0 15 10 15 30 0 33 -11 38 -30 15z"></path><path id="pJv55aPem" d="M1880 415 c0 -38 13 -46 29 -17 6 11 6 24 0 35 -16 28 -29 20 -29 -18z"></path><path id="phiR9r6Vq" d="M1487 123 c-4 -3 -7 -15 -7 -25 0 -14 6 -19 23 -16 29 4 38 48 9 48 -10 0 -22 -3 -25 -7z"></path></g></g><g id="l7A5z8tNbb6YqJ5RLKlvc4T" fill="rgb(141,211,183)" style="transform: none;"><g style="transform: none;"><path id="pNcQ9FnxW" d="M517 1263 c36 -226 124 -534 210 -731 l19 -44 41 45 c49 54 95 141 113 215 18 76 15 218 -6 293 -30 107 -138 197 -281 234 -86 23 -101 21 -96 -12z"></path><path id="pTj5gZcxz" d="M419 1256 c-45 -31 -86 -84 -104 -137 -30 -85 -12 -234 42 -347 40 -82 148 -187 245 -236 43 -22 80 -37 82 -35 2 2 -16 56 -41 119 -58 153 -126 387 -154 538 -13 67 -26 122 -29 122 -3 0 -21 -11 -41 -24z"></path></g></g><g id="l4GPksUkS3g5Jfe94vg0LVX" fill="rgb(174,181,202)" style="transform: none;"><g style="transform: none;"><path id="paj5FqzIq" d="M1550 1170 c0 -18 7 -20 75 -20 73 0 75 1 65 20 -9 17 -21 20 -75 20 -58 0 -65 -2 -65 -20z"></path><path id="pH3y5Ct1m" d="M1660 1090 c0 -13 7 -20 20 -20 13 0 20 7 20 20 0 13 -7 20 -20 20 -13 0 -20 -7 -20 -20z"></path><path id="p1CeuRUucZ" d="M1660 1010 c0 -13 7 -20 20 -20 13 0 20 7 20 20 0 13 -7 20 -20 20 -13 0 -20 -7 -20 -20z"></path><path id="p1TB7h5SC" d="M1205 942 c-45 -8 -77 -26 -90 -53 -21 -39 -19 -59 5 -59 11 0 20 7 20 15 0 25 38 54 80 61 22 4 40 12 40 19 0 15 -26 23 -55 17z"></path><path id="pNRNIx5Rk" d="M1810 865 c0 -28 4 -35 20 -35 22 0 26 20 10 51 -16 30 -30 23 -30 -16z"></path></g></g><g id="l4DdAmamR2jbfcb4X1RjnMQ" fill="rgb(255,227,107)" style="transform: none;"><g style="transform: none;"><path id="p13eMS23tH" d="M1450 671 c0 -82 7 -85 238 -132 212 -42 232 -42 232 1 0 29 -19 37 -175 70 -162 35 -191 47 -201 85 -5 22 -12 25 -50 25 l-44 0 0 -49z"></path><path id="p19hm7jKoC" d="M1031 601 c-18 -33 1 -57 51 -65 24 -4 53 -9 66 -13 20 -5 22 -2 22 35 0 45 -4 48 -79 58 -43 6 -50 4 -60 -15z"></path><path id="pgeWmzZ1G" d="M1340 522 l0 -38 268 -54 c147 -30 275 -51 285 -47 26 10 22 55 -5 67 -25 10 -509 110 -533 110 -11 0 -15 -11 -15 -38z"></path><path id="pHCgMY4dm" d="M1046 488 c-19 -10 -21 -54 -4 -64 6 -4 37 -13 70 -19 l58 -13 0 43 0 42 -54 10 c-32 5 -62 6 -70 1z"></path><path id="p198B3pyMz" d="M1340 401 c0 -29 5 -41 18 -45 9 -3 133 -28 276 -56 233 -47 260 -50 274 -36 12 12 13 20 5 39 -10 22 -31 28 -275 76 -144 29 -271 54 -280 57 -15 5 -18 -1 -18 -35z"></path><path id="pNIsnq5ge" d="M1037 363 c-12 -11 -8 -50 6 -61 9 -8 102 -32 122 -32 3 0 5 18 5 39 0 39 0 39 -50 50 -59 13 -74 14 -83 4z"></path><path id="pZUDuSHbR" d="M1340 273 l0 -38 233 -49 c127 -27 255 -51 283 -54 47 -4 53 -2 59 18 13 41 -14 52 -282 107 -142 29 -266 52 -275 53 -14 0 -18 -8 -18 -37z"></path><path id="p3ViIXkTx" d="M1038 239 c-22 -12 -23 -42 -3 -59 8 -7 42 -18 75 -25 l60 -13 0 43 0 43 -46 7 c-26 3 -52 8 -58 11 -6 2 -19 -1 -28 -7z"></path><path id="pKViEfViw" d="M1340 151 c0 -47 7 -50 107 -58 63 -5 73 -4 79 12 12 31 -10 49 -77 62 -35 7 -74 15 -86 18 -21 5 -23 2 -23 -34z"></path></g></g><g id="l5cI0S1tn8MGEcepYRddV8f" fill="rgb(194,201,216)" style="transform: none;"><g style="transform: none;"><path id="pFGQ8psaX" d="M1262 1178 c-22 -22 -13 -28 38 -28 43 0 50 3 50 20 0 16 -7 20 -38 20 -21 0 -43 -5 -50 -12z"></path><path id="pBdWKji0O" d="M1430 1170 c0 -19 7 -20 130 -20 80 0 130 4 130 10 0 6 -25 10 -55 10 -30 0 -55 5 -55 10 0 6 -32 10 -75 10 -68 0 -75 -2 -75 -20z"></path><path id="pJahWxRHP" d="M1550 1090 c0 -18 7 -20 70 -20 63 0 70 2 70 20 0 18 -7 20 -70 20 -63 0 -70 -2 -70 -20z"></path><path id="pf5IJqE5D" d="M1550 1010 c0 -18 7 -20 70 -20 63 0 70 2 70 20 0 18 -7 20 -70 20 -63 0 -70 -2 -70 -20z"></path><path id="pTKLT6TvF" d="M1165 931 c-30 -13 -54 -44 -61 -79 -6 -28 -4 -32 15 -32 17 0 21 6 21 35 0 31 3 35 25 35 20 0 25 5 25 25 0 14 -1 25 -2 24 -2 0 -12 -4 -23 -8z"></path><path id="p1GyFup3KS" d="M1670 915 c0 -23 3 -25 53 -25 58 -1 87 -17 87 -49 0 -14 6 -21 20 -21 23 0 25 13 9 59 -14 40 -54 61 -119 61 -47 0 -50 -2 -50 -25z"></path><path id="pM7lU5FQ0" d="M1102 788 c5 -34 38 -37 38 -4 0 20 -5 26 -21 26 -15 0 -20 -5 -17 -22z"></path><path id="pXblljB3S" d="M1810 784 c0 -33 33 -30 38 4 3 17 -2 22 -17 22 -16 0 -21 -6 -21 -26z"></path><path id="p15qTQBqCG" d="M1880 535 c0 -29 10 -37 27 -24 20 17 16 45 -7 45 -14 0 -20 -7 -20 -21z"></path></g></g><g id="l3B4Wmpi5AxUzrTgJu3K69G" fill="rgb(255,235,152)" style="transform: none;"><g style="transform: none;"><path id="pu1DH3suL" d="M1458 713 c7 -3 12 -24 12 -53 0 -38 4 -52 19 -59 10 -6 100 -27 199 -47 100 -21 179 -40 177 -44 -2 -4 5 -6 16 -5 20 1 39 20 39 40 0 6 -14 11 -30 12 -58 4 -335 66 -357 80 -17 10 -23 23 -23 48 0 33 -2 35 -32 34 -18 0 -27 -3 -20 -6z"></path><path id="prPhvbGLy" d="M1137 594 c5 -14 0 -15 -38 -9 -64 11 -71 11 -76 0 -2 -6 4 -20 13 -30 8 -11 13 -14 9 -7 -3 6 -3 12 2 12 17 0 88 -23 93 -29 7 -11 218 -51 233 -45 7 2 125 -18 262 -46 136 -28 253 -52 259 -53 6 -1 11 7 11 17 0 17 -25 24 -215 63 -118 23 -239 48 -267 54 -34 7 -53 15 -53 25 0 8 -2 14 -5 14 -5 0 -147 30 -212 45 -18 4 -21 2 -16 -11z"></path><path id="pB7ze01Gb" d="M1140 465 c0 -17 -6 -17 -87 2 -18 4 -23 1 -23 -16 0 -15 6 -21 21 -21 11 0 18 -4 15 -8 -3 -5 9 -6 26 -4 17 3 28 1 25 -5 -3 -5 2 -9 11 -10 9 -1 60 -11 112 -23 52 -12 114 -21 138 -21 23 0 41 -3 38 -8 -3 -4 9 -5 26 -3 18 3 28 1 25 -5 -4 -5 7 -8 25 -5 18 3 28 1 25 -5 -4 -5 7 -8 25 -5 18 3 28 1 25 -5 -4 -5 7 -8 25 -5 18 3 28 1 25 -5 -4 -5 7 -8 25 -5 19 3 28 1 25 -5 -4 -6 4 -8 18 -5 15 2 25 0 25 -7 0 -7 4 -10 10 -6 11 7 140 -16 140 -25 0 -9 32 -6 48 4 20 12 14 36 -10 36 -13 0 -136 23 -275 52 -193 39 -252 55 -256 67 -3 12 -30 22 -93 34 -49 10 -99 21 -111 24 -17 4 -23 1 -23 -12z"></path><path id="pzs2S0J6U" d="M1137 343 c5 -12 -4 -14 -52 -8 -52 7 -57 6 -53 -11 2 -13 13 -20 36 -22 18 -2 30 -7 27 -12 -3 -4 4 -6 16 -3 12 3 24 1 28 -4 6 -10 162 -44 221 -48 59 -4 180 -28 175 -35 -2 -3 10 -4 27 -2 18 3 28 1 25 -5 -3 -5 7 -8 26 -5 24 2 28 1 17 -7 -11 -8 -4 -9 25 -5 30 4 36 3 25 -5 -11 -8 -5 -9 25 -5 30 4 36 3 25 -5 -11 -8 -5 -9 25 -5 30 4 36 3 25 -5 -11 -8 -5 -9 25 -5 23 3 35 2 28 -3 -7 -5 4 -9 30 -9 40 0 57 9 57 31 0 6 -10 10 -22 10 -13 1 -135 23 -272 50 -200 40 -250 53 -254 67 -3 12 -22 21 -61 28 -31 7 -84 18 -118 25 -53 10 -61 10 -56 -2z"></path><path id="pLvERuPmd" d="M1020 211 c0 -21 38 -54 52 -45 5 3 17 2 26 -2 9 -4 24 -8 32 -10 8 -2 56 -12 105 -23 50 -10 108 -22 130 -26 22 -4 45 -8 50 -9 58 -15 87 -17 100 -6 8 7 15 16 15 19 0 4 -34 13 -76 20 -63 10 -76 16 -84 35 -7 19 -22 26 -97 40 -48 10 -98 20 -110 23 -18 4 -23 1 -23 -15 0 -18 -3 -19 -42 -10 -24 5 -51 14 -60 19 -14 7 -18 5 -18 -10z"></path></g></g><g id="l2gAIc5NZsYeWDSpeuYCTMa" fill="rgb(212,216,226)" style="transform: none;"><g style="transform: none;"><path id="pfENgCbvm" d="M1320 1180 c0 -5 -16 -10 -35 -10 -19 0 -35 -4 -35 -10 0 -6 62 -10 165 -10 103 0 165 4 165 10 0 6 -27 10 -60 10 -33 0 -60 4 -60 10 0 6 -30 10 -70 10 -40 0 -70 -4 -70 -10z"></path><path id="p1G3HuEvP3" d="M1250 1090 c0 -17 7 -20 50 -20 43 0 50 3 50 20 0 17 -7 20 -50 20 -43 0 -50 -3 -50 -20z"></path><path id="phQWTHOvi" d="M1430 1090 c0 -18 7 -20 75 -20 68 0 75 2 75 20 0 18 -7 20 -75 20 -68 0 -75 -2 -75 -20z"></path><path id="phUv7xJjp" d="M1250 1010 c0 -17 7 -20 50 -20 43 0 50 3 50 20 0 17 -7 20 -50 20 -43 0 -50 -3 -50 -20z"></path><path id="pz2DENHFO" d="M1430 1010 c0 -18 7 -20 75 -20 68 0 75 2 75 20 0 18 -7 20 -75 20 -68 0 -75 -2 -75 -20z"></path><path id="pkM1PRh7C" d="M1149 917 c-37 -25 -57 -83 -45 -131 10 -39 36 -33 36 8 0 18 3 48 6 66 l7 32 318 -4 c175 -2 322 -7 325 -11 4 -4 9 -32 12 -62 3 -37 9 -55 18 -55 31 0 29 107 -3 143 -12 12 -31 17 -70 17 -29 0 -53 5 -53 10 0 6 -93 10 -259 10 -252 0 -259 -1 -292 -23z"></path></g></g><g id="l6NJQ3dXfA9QoUWIRCdJyDm" fill="rgb(255,241,182)" style="transform: none;"><g style="transform: none;"><path id="p5pwsUSFZ" d="M1470 671 c0 -31 5 -53 15 -61 24 -20 419 -100 427 -86 4 6 4 14 0 17 -4 3 -79 20 -167 38 -88 18 -175 37 -193 43 -35 10 -57 47 -49 80 4 13 -1 18 -14 18 -16 0 -19 -7 -19 -49z"></path><path id="p100HFmWNY" d="M1020 581 c0 -6 10 -13 23 -16 12 -3 42 -10 67 -16 25 -6 90 -20 145 -31 227 -45 646 -128 650 -128 3 0 5 6 5 13 0 9 -82 31 -272 70 -150 31 -313 65 -363 76 -168 36 -255 47 -255 32z"></path><path id="pcJ8yjnnT" d="M1030 450 c0 -9 9 -16 22 -17 42 -4 118 -25 114 -32 -3 -4 9 -5 26 -3 18 3 28 1 25 -5 -4 -5 7 -8 25 -5 18 3 28 1 25 -5 -4 -5 7 -8 25 -5 18 3 28 1 25 -5 -3 -5 6 -8 21 -6 15 2 149 -21 297 -51 166 -34 274 -51 279 -46 5 5 8 12 5 14 -2 2 -125 29 -274 59 -148 31 -301 63 -339 72 -38 8 -116 24 -173 34 -94 16 -103 16 -103 1z"></path><path id="p11KdfC01w" d="M1030 327 c0 -10 19 -18 60 -26 33 -7 58 -16 56 -20 -3 -5 6 -6 19 -3 14 2 25 0 25 -5 0 -6 11 -8 25 -5 14 2 25 0 25 -5 0 -6 11 -8 25 -5 14 2 25 0 25 -5 0 -6 11 -8 25 -5 14 2 25 0 25 -5 0 -5 12 -8 28 -6 15 2 143 -21 284 -50 198 -41 259 -50 262 -40 6 15 24 10 -259 68 -121 25 -269 56 -330 70 -60 13 -141 29 -180 35 -38 6 -80 14 -92 17 -16 3 -23 1 -23 -10z"></path><path id="ppn74IfwG" d="M1022 198 c3 -7 28 -18 56 -24 29 -7 60 -15 69 -19 18 -8 23 -9 78 -19 17 -4 39 -8 50 -11 38 -8 80 -15 125 -20 25 -2 59 -9 77 -14 24 -7 35 -6 43 4 9 10 4 15 -22 20 -18 4 -78 17 -133 30 -84 21 -319 65 -340 65 -4 0 -5 -6 -3 -12z"></path></g></g><g id="l43TRZTeuWzeohQd1IDqZHE" fill="rgb(255,245,203)" style="transform: none;"><g style="transform: none;"><path id="psQIRp0LH" d="M1140 557 c0 -9 32 -20 93 -31 50 -10 102 -21 115 -23 15 -4 22 -1 22 9 0 11 -29 21 -107 37 -127 25 -123 25 -123 8z"></path><path id="pCN9NnvOz" d="M1142 428 c3 -7 40 -21 84 -30 143 -30 144 -30 144 -13 0 8 -2 15 -4 15 -2 0 -48 9 -101 20 -114 23 -128 24 -123 8z"></path><path id="pFyT7Dffj" d="M1140 307 c0 -15 15 -20 158 -48 60 -11 86 -8 66 10 -5 4 -49 16 -99 25 -49 10 -98 19 -107 22 -12 3 -18 0 -18 -9z"></path><path id="p1DUsB8ZYm" d="M1140 176 c0 -10 22 -19 71 -30 106 -25 159 -30 159 -18 0 12 -8 15 -115 37 -44 9 -88 19 -97 22 -11 3 -18 -1 -18 -11z"></path></g></g><g id="l69dgtGfklTgb8KWQnkponz" fill="rgb(234,236,241)" style="transform: none;"><g style="transform: none;"><path id="pYA06zjaq" d="M1320 1160 c0 -6 30 -10 70 -10 40 0 70 4 70 10 0 6 -30 10 -70 10 -40 0 -70 -4 -70 -10z"></path><path id="pWeIk3tdW" d="M1320 1090 c0 -18 7 -20 70 -20 63 0 70 2 70 20 0 18 -7 20 -70 20 -63 0 -70 -2 -70 -20z"></path><path id="pVPkZzoth" d="M1320 1010 c0 -18 7 -20 70 -20 63 0 70 2 70 20 0 18 -7 20 -70 20 -63 0 -70 -2 -70 -20z"></path><path id="pkx5Zx2e6" d="M1126 898 c-20 -33 -28 -76 -21 -109 6 -28 9 -29 61 -29 l54 0 0 49 c0 27 3 63 6 80 l7 31 -47 0 c-36 0 -48 -4 -60 -22z"></path><path id="pafiGmeWm" d="M1310 841 l0 -81 265 0 265 0 0 58 c0 98 11 94 -278 100 l-252 5 0 -82z"></path></g></g><g id="l7Cbbdmps1YAE485lRWHclD" fill="rgb(248,249,251)" style="transform: none;"><g style="transform: none;"><path id="p15tkVXKXF" d="M1197 913 c-4 -3 -7 -33 -7 -65 l0 -58 -40 0 c-29 0 -40 -4 -40 -15 0 -13 40 -15 300 -15 260 0 300 2 300 15 0 13 -27 15 -185 15 l-185 0 0 65 0 65 -68 0 c-38 0 -72 -3 -75 -7z"></path></g></g></svg>
